<?xml version="1.0" encoding="UTF-8"?>
<!DOCTYPE svg  PUBLIC '-//W3C//DTD SVG 1.1//EN'  'http://www.w3.org/Graphics/SVG/1.1/DTD/svg11.dtd'>
<svg version="1.1" xmlns="http://www.w3.org/2000/svg">
<defs>
<font id="Graphik-BoldItalic" horiz-adv-x="819">
<font-face font-family="Graphik Bold" font-style="italic" font-weight="700" ascent="825" bbox="-84 -226 1049 976" cap-height="715" descent="-175" panose-1="2 11 8 3 3 2 2 13 2 3" slope="-8" underline-position="-100" underline-thickness="50" unicode-range="U+0020-00FE" units-per-em="1000" x-height="523"/>
<missing-glyph/>
<glyph glyph-name="space" horiz-adv-x="197" unicode=" "/>
<glyph d="M87 235l50 480h202l-103 -480h-149zM140 -11q-60 0 -89 48q-13 23 -13 50q0 56 48 85q26 16 56 16q58 0 88 -46q16 -25 16 -53q0 -54 -47 -83q-28 -17 -59 -17z" glyph-name="exclam" horiz-adv-x="334" unicode="!"/>
<glyph d="M91 440l20 275h169l-63 -275h-126zM303 440l21 275h168l-62 -275h-127z" glyph-name="quotedbl" horiz-adv-x="462" unicode='"'/>
<glyph d="M264 99l34 142h-63l-33 -142h-121l33 142h-77l23 141h88l18 76h-78l20 134h90l29 123h121l-29 -123h62l30 123h121l-30 -123h79l-20 -134h-91l-18 -76h81l-23 -141h-91l-34 -142h-121zM287 458l-18 -76h62l18 76h-62z" glyph-name="numbersign" horiz-adv-x="569" unicode="#"/>
<glyph d="M221 -135l20 129q-155 23 -207 133q-20 45 -21 99h184q3 -71 66 -92l24 152q-159 36 -199 122q-16 36 -16 83q0 119 104 185q77 47 181 49l14 88h78l-15 -93q205 -30 213 -213h-181q-4 55 -54 73l-23 -144q161 -38 204 -119q19 -38 19 -86q0 -141 -120 -204 q-73 -38 -174 -39l-19 -123h-78zM428 204q0 36 -44 55q-10 4 -22 8l-22 -140q87 8 88 77zM250 518q0 -37 37 -54q12 -5 27 -10l21 133q-70 -6 -83 -52q-2 -9 -2 -17z" glyph-name="dollar" horiz-adv-x="643" unicode="$"/>
<glyph d="M191 528q0 -60 51 -60h2q45 1 59 58q4 17 4 36q0 49 -37 58q-7 1 -14 1q-49 0 -62 -61q-3 -15 -3 -32zM239 364q-100 0 -150 64q-31 41 -31 96q0 96 71 154q55 45 131 45q96 0 146 -64q32 -41 32 -97q0 -93 -68 -151q-56 -47 -131 -47zM95 0l577 715h99l-577 -715h-99z M557 152q4 -58 53 -60q44 1 58 57q5 18 5 37q0 51 -39 59q-6 1 -12 1q-49 0 -62 -60q-3 -17 -3 -34zM605 -12q-98 0 -148 64q-32 40 -32 96q0 94 70 153q55 46 131 46q96 0 146 -63q33 -42 33 -98q0 -93 -69 -152q-56 -46 -131 -46z" glyph-name="percent" horiz-adv-x="827" unicode="%"/>
<glyph d="M693 0h-217l-36 54q-85 -65 -195 -65q-134 0 -193 78q-35 47 -35 115q0 137 151 211q21 10 42 18q-34 55 -34 113q0 112 98 166q60 34 140 34q112 0 170 -62q38 -43 38 -104q0 -105 -122 -167q-20 -10 -44 -20l71 -110l71 111h162l-153 -237zM212 210q0 -61 56 -73 q11 -2 23 -2q45 1 75 30l-91 138q-62 -35 -63 -93zM411 597q-43 0 -57 -39q-4 -13 -4 -27q1 -32 32 -75q58 28 73 54q8 16 8 34q0 40 -34 51q-9 2 -18 2z" glyph-name="ampersand" horiz-adv-x="762" unicode="&amp;"/>
<glyph d="M91 440l20 275h175l-62 -275h-133z" glyph-name="quotesingle" horiz-adv-x="256" unicode="'"/>
<glyph d="M140 -148q-105 162 -105 358q0 288 197 510q26 29 54 55h147q-165 -205 -209 -399q-19 -87 -19 -179q0 -195 74 -345h-139z" glyph-name="parenleft" horiz-adv-x="356" unicode="("/>
<glyph d="M229 776q105 -162 105 -358q0 -290 -198 -511q-26 -28 -53 -54h-147q165 205 209 399q19 87 19 179q0 195 -74 345h139z" glyph-name="parenright" horiz-adv-x="356" unicode=")"/>
<glyph d="M181 374l-95 83l102 84l-115 20l54 120l102 -59l-5 121h143l-43 -127l117 45l15 -124l-120 -5l76 -96l-120 -68l-38 117z" glyph-name="asterisk" horiz-adv-x="440" unicode="*"/>
<glyph d="M184 83l30 192h-176l21 130h176l30 192h143l-30 -192h176l-21 -130h-176l-30 -192h-143z" glyph-name="plus" horiz-adv-x="570" unicode="+"/>
<glyph d="M77 -124l-99 44l107 262l157 -59z" glyph-name="comma" horiz-adv-x="306" unicode=","/>
<glyph d="M42 218l22 135h280l-22 -135h-280z" glyph-name="hyphen" horiz-adv-x="382" unicode="-"/>
<glyph d="M120 -11q-59 0 -88 49q-14 24 -14 52q0 57 47 86q25 15 54 15q60 0 91 -48q15 -25 15 -53q0 -57 -48 -86q-27 -15 -57 -15z" glyph-name="period" horiz-adv-x="299" unicode="."/>
<glyph d="M-84 -148l448 924h146l-449 -924h-145z" glyph-name="slash" horiz-adv-x="434" unicode="/"/>
<glyph d="M348 -12q-177 0 -256 116q-48 72 -48 174q0 35 7 83l5 30q33 211 182 292q77 42 175 42q170 0 250 -111q53 -74 53 -183q0 -39 -6 -78l-5 -30q-36 -230 -201 -304q-70 -31 -156 -31zM357 147q89 0 125 102q12 37 20 86l5 29q6 41 6 76q-2 129 -105 130q-111 0 -144 -163 q-3 -13 -5 -27l-5 -29q-8 -54 -8 -79q2 -124 111 -125z" glyph-name="zero" horiz-adv-x="732" unicode="0"/>
<glyph d="M126 0l80 513l-149 -86l27 175l183 113h177l-113 -715h-205z" glyph-name="one" horiz-adv-x="450" unicode="1"/>
<glyph d="M-37 0l4 29l295 265q100 87 128 140q18 35 18 67q0 59 -51 69q-9 1 -17 1q-76 0 -104 -103q-2 -7 -3 -13h-185q22 180 164 242q64 28 145 28q154 0 219 -88q37 -50 37 -120q0 -107 -98 -205q-29 -28 -75 -66l-111 -93h236l-24 -153h-578z" glyph-name="two" horiz-adv-x="615" unicode="2"/>
<glyph d="M313 -12q-211 0 -271 136q-21 49 -22 111h186q0 -90 83 -98q8 -1 16 -1q75 0 93 59q5 16 5 33q-2 72 -88 73h-50l21 127h64q83 0 90 72v9q0 59 -58 68q-9 1 -17 1q-88 -2 -106 -91h-182q18 132 128 196q74 42 173 42q151 0 218 -77q39 -46 39 -113q0 -95 -81 -144 q-27 -16 -58 -24q78 -20 104 -91q9 -26 9 -54q0 -131 -119 -194q-76 -40 -177 -40z" glyph-name="three" horiz-adv-x="652" unicode="3"/>
<glyph d="M324 0l21 137h-347l12 77l378 501h246l-69 -437h92l-23 -141h-92l-21 -137h-197zM216 278h156l44 276z" glyph-name="four" horiz-adv-x="678" unicode="4"/>
<glyph d="M291 -12q-165 0 -234 97q-41 57 -41 140h192q4 -82 83 -83q73 0 93 71q5 20 5 42q1 75 -67 88q-13 3 -27 3q-71 -1 -118 -52h-119l78 421h482l-24 -150h-333l-27 -154q60 71 166 72q122 0 170 -93q25 -50 25 -117q0 -152 -109 -229q-79 -56 -195 -56z" glyph-name="five" horiz-adv-x="631" unicode="5"/>
<glyph d="M335 -12q-196 0 -262 134q-29 61 -28 143q0 43 8 94l4 24q28 178 144 271q89 71 209 71q165 0 226 -103q26 -46 29 -108h-190q-5 59 -70 60q-113 -2 -148 -188q65 83 169 82q105 0 166 -70q48 -54 48 -135q0 -140 -108 -217q-82 -58 -197 -58zM247 225q0 -65 51 -85 q17 -7 38 -7q61 0 90 56q14 28 14 62q0 62 -49 82q-18 7 -39 7q-59 0 -89 -52q-16 -29 -16 -63z" glyph-name="six" horiz-adv-x="674" unicode="6"/>
<glyph d="M62 0l289 549h-283l26 166h544l-3 -21l-362 -694h-211z" glyph-name="seven" horiz-adv-x="576" unicode="7"/>
<glyph d="M310 -12q-150 0 -231 70q-59 52 -59 129q0 132 125 185q17 7 34 12q-73 37 -81 112q-1 9 -1 17q0 117 111 175q73 37 169 37q129 0 203 -62q58 -51 59 -128q0 -107 -105 -156q-10 -5 -21 -9q84 -32 103 -112q4 -19 4 -38q0 -139 -131 -198q-76 -34 -179 -34zM225 216 q0 -58 53 -77q19 -7 40 -7q67 0 92 53q10 22 10 48q0 58 -54 76q-16 5 -35 5q-69 0 -95 -51q-11 -21 -11 -47zM281 503q0 -48 44 -66q17 -7 36 -7q55 0 79 40q11 20 11 43q0 51 -46 68q-16 6 -34 6q-55 0 -79 -42q-11 -19 -11 -42z" glyph-name="eight" horiz-adv-x="657" unicode="8"/>
<glyph d="M293 -11q-163 0 -230 97q-33 48 -36 116h190q9 -60 84 -61q94 0 132 135q6 22 11 48q-60 -80 -165 -81q-113 0 -173 72q-44 52 -44 131q0 141 106 219q83 61 201 61q191 0 259 -135q30 -63 31 -148q0 -48 -8 -89l-3 -23q-58 -341 -355 -342zM259 464q0 -68 53 -85 q14 -4 30 -4q66 0 96 53q15 28 15 62q0 65 -50 85q-17 7 -38 7q-63 0 -92 -55q-14 -29 -14 -63z" glyph-name="nine" horiz-adv-x="675" unicode="9"/>
<glyph d="M123 -11q-59 0 -88 48q-15 25 -15 53q0 57 47 86q25 15 55 15q60 0 90 -49q15 -24 15 -52q0 -56 -47 -85q-26 -16 -57 -16zM169 275q-60 0 -89 49q-14 24 -14 52q0 57 47 86q25 15 55 15q60 0 91 -48q15 -25 15 -53q0 -57 -48 -86q-26 -15 -57 -15z" glyph-name="colon" horiz-adv-x="305" unicode=":"/>
<glyph d="M72 -124l-99 44l106 262l158 -59zM191 275q-60 0 -89 49q-13 24 -13 52q0 57 47 86q25 15 54 15q60 0 91 -48q15 -25 15 -53q0 -57 -48 -86q-26 -15 -57 -15z" glyph-name="semicolon" horiz-adv-x="321" unicode=";"/>
<glyph d="M430 59l-382 251l6 35l459 240l-26 -166l-206 -98l174 -107z" glyph-name="less" horiz-adv-x="513" unicode="&lt;"/>
<glyph d="M23 167l19 122h479l-19 -122h-479zM54 363l19 123h479l-19 -123h-479z" glyph-name="equal" horiz-adv-x="557" unicode="="/>
<glyph d="M99 586l382 -251l-5 -35l-460 -240l26 167l206 98l-173 107z" glyph-name="greater" horiz-adv-x="513" unicode="&gt;"/>
<glyph d="M163 235l4 24q13 79 101 149q9 8 20 16q55 42 64 52q22 25 22 53q-5 49 -58 51q-67 0 -84 -86v-2h-175q19 152 144 207q59 26 132 26q153 0 209 -92q24 -40 24 -90q0 -89 -78 -156q-12 -10 -27 -21q-10 -8 -33 -23q-63 -43 -82 -72q-11 -18 -15 -36h-168zM225 -11 q-60 0 -89 48q-13 23 -13 50q0 56 48 85q26 16 56 16q58 0 88 -46q16 -25 16 -53q0 -54 -47 -83q-28 -17 -59 -17z" glyph-name="question" horiz-adv-x="556" unicode="?"/>
<glyph d="M701 463l-44 -273q-8 -65 41 -66q57 0 89 66q27 54 27 139q0 145 -109 226q-89 66 -223 66q-161 0 -264 -104t-103 -267q0 -167 108 -260q93 -79 242 -79q147 0 241 75q9 7 16 14h91q-69 -102 -215 -141q-66 -17 -136 -17q-205 0 -325 128q-107 114 -107 281 q0 186 128 311q115 112 282 127q22 2 43 2q185 0 301 -106q109 -102 109 -258q0 -178 -112 -245q-50 -30 -111 -30q-121 1 -142 82q-46 -83 -142 -84q-94 0 -134 80q-19 41 -20 95q0 127 79 197q55 49 127 49q81 -1 107 -60l9 52h147zM441 168q45 0 69 53q14 31 14 68 q-5 63 -60 66q-47 0 -69 -53q-12 -30 -12 -68q8 -61 58 -66z" glyph-name="at" horiz-adv-x="918" unicode="@"/>
<glyph d="M476 0l-17 133h-237l-59 -133h-196l342 715h265l114 -715h-212zM406 549l-122 -275h157z" glyph-name="A" horiz-adv-x="738" unicode="A"/>
<glyph d="M27 0l113 715h289q196 0 225 -132q4 -21 4 -43q0 -109 -95 -155q-21 -10 -44 -16q107 -24 121 -122q2 -14 2 -28q0 -116 -99 -176q-72 -43 -175 -43h-341zM248 137h90q77 0 99 57q7 17 7 37q-6 73 -96 75h-73zM294 431h80q96 2 97 83q0 58 -62 64q-9 1 -19 1h-72z" glyph-name="B" horiz-adv-x="679" unicode="B"/>
<glyph d="M393 -12q-207 0 -296 126q-53 77 -53 189q0 194 115 312q110 111 285 111q204 0 278 -135q33 -59 36 -140h-206q-13 114 -114 115q-105 0 -152 -111q-27 -63 -28 -144q0 -130 93 -155q20 -6 44 -6q101 0 136 100q4 10 6 19h203q-26 -165 -163 -238q-81 -43 -184 -43z" glyph-name="C" horiz-adv-x="762" unicode="C"/>
<glyph d="M27 0l113 715h231q256 0 334 -160q30 -62 30 -144q0 -221 -146 -331q-108 -80 -271 -80h-291zM257 157h62q137 0 184 121q20 53 20 124q-6 154 -156 157h-46z" glyph-name="D" horiz-adv-x="748" unicode="D"/>
<glyph d="M27 0l113 715h493l-25 -158h-289l-19 -123h230l-22 -144h-231l-21 -132h306l-25 -158h-510z" glyph-name="E" horiz-adv-x="614" unicode="E"/>
<glyph d="M27 0l113 715h483l-26 -159h-277l-24 -152h222l-24 -151h-222l-39 -253h-206z" glyph-name="F" horiz-adv-x="582" unicode="F"/>
<glyph d="M401 -12q-209 0 -300 127q-56 78 -56 192q0 179 112 297q112 119 286 121h7q185 0 267 -108q47 -63 52 -154h-204q-11 100 -123 101q-100 0 -151 -101q-34 -67 -34 -154q0 -135 103 -160q21 -5 45 -5q124 1 147 108h-132l23 143h335q-20 -364 -303 -402q-36 -5 -74 -5z " glyph-name="G" horiz-adv-x="788" unicode="G"/>
<glyph d="M27 0l113 715h206l-44 -273h236l43 273h205l-113 -715h-205l44 282h-235l-44 -282h-206z" glyph-name="H" horiz-adv-x="784" unicode="H"/>
<glyph d="M31 0l113 715h207l-113 -715h-207z" glyph-name="I" horiz-adv-x="353" unicode="I"/>
<glyph d="M145 -9q-90 0 -152 30l25 152q44 -19 92 -19q85 2 99 88l75 473h206l-76 -482q-41 -241 -269 -242z" glyph-name="J" horiz-adv-x="478" unicode="J"/>
<glyph d="M27 0l113 715h206l-45 -284l264 284h220l-324 -342l213 -373h-221l-171 311l-49 -311h-206z" glyph-name="K" horiz-adv-x="726" unicode="K"/>
<glyph d="M27 0l113 715h206l-88 -556h270l-25 -159h-476z" glyph-name="L" horiz-adv-x="575" unicode="L"/>
<glyph d="M27 0l113 715h259l77 -379l197 379h270l-113 -715h-204l71 448l-246 -448h-68l-102 448l-71 -448h-183z" glyph-name="M" horiz-adv-x="941" unicode="M"/>
<glyph d="M27 0l113 715h234l159 -402l64 402h182l-113 -715h-200l-186 449l-70 -449h-183z" glyph-name="N" horiz-adv-x="777" unicode="N"/>
<glyph d="M804 409q0 -192 -121 -310q-115 -111 -293 -111q-161 0 -258 94q-88 86 -88 219q0 188 117 307q115 117 292 117q173 0 270 -100q81 -85 81 -216zM591 402q0 109 -74 147q-31 15 -70 16q-104 1 -156 -102q-34 -67 -34 -154q0 -110 78 -146q30 -14 69 -14q104 0 155 104 q32 65 32 149z" glyph-name="O" unicode="O"/>
<glyph d="M27 0l113 715h257q181 0 241 -107q23 -43 24 -97q0 -169 -134 -235q-70 -34 -166 -34h-91l-38 -242h-206zM292 381h62q103 0 112 91q1 8 1 16q-2 74 -92 75h-55z" glyph-name="P" horiz-adv-x="652" unicode="P"/>
<glyph d="M390 -12q-161 0 -258 94q-88 86 -88 219q0 188 117 307q115 117 292 117q173 0 270 -100q81 -85 81 -216q0 -191 -120 -309q-22 -21 -46 -38l66 -68l-123 -114l-106 116q-44 -8 -85 -8zM332 160l119 98l66 -69q72 75 74 213q0 105 -70 145q-32 17 -74 18 q-104 1 -156 -102q-34 -67 -34 -154q1 -108 75 -149z" glyph-name="Q" unicode="Q"/>
<glyph d="M27 0l113 715h272q193 0 245 -116q17 -39 17 -87q0 -137 -109 -195q-26 -14 -56 -22l135 -295h-208l-117 256h-48l-40 -256h-204zM293 389h72q108 2 109 98q-1 73 -89 74h-65z" glyph-name="R" horiz-adv-x="697" unicode="R"/>
<glyph d="M314 -12q-199 0 -269 115q-32 54 -32 124h193q3 -77 81 -90q16 -3 32 -3q88 7 94 73q0 36 -46 54q-22 8 -55 15q-160 34 -207 101q-30 43 -30 111q0 117 94 184q77 53 193 53q223 0 263 -154q8 -32 8 -69h-187q-7 76 -90 77q-74 0 -82 -54q-1 -6 -1 -11q0 -32 38 -47 q22 -9 63 -18q162 -35 211 -106q29 -43 29 -106q0 -137 -110 -203q-76 -45 -190 -46z" glyph-name="S" horiz-adv-x="647" unicode="S"/>
<glyph d="M164 0l87 557h-185l26 158h576l-26 -158h-185l-87 -557h-206z" glyph-name="T" horiz-adv-x="618" unicode="T"/>
<glyph d="M369 -12q-226 0 -286 145q-29 72 -13 175l65 407h205l-65 -413q-21 -131 62 -150q16 -3 35 -3q77 0 105 64q12 29 20 76l67 426h207l-70 -444q-34 -213 -197 -265q-59 -18 -135 -18z" glyph-name="U" horiz-adv-x="764" unicode="U"/>
<glyph d="M203 0l-124 715h213l65 -502l226 502h199l-346 -715h-233z" glyph-name="V" horiz-adv-x="719" unicode="V"/>
<glyph d="M139 0l-60 715h208l20 -454l172 454h173l40 -458l168 458h189l-285 -715h-201l-41 436l-176 -436h-207z" glyph-name="W" horiz-adv-x="986" unicode="W"/>
<glyph d="M-28 0l279 376l-149 339h220l81 -215l142 215h213l-245 -348l160 -367h-220l-97 247l-169 -247h-215z" glyph-name="X" horiz-adv-x="723" unicode="X"/>
<glyph d="M197 0l48 307l-168 408h214l86 -238l157 238h205l-289 -419l-46 -296h-207z" glyph-name="Y" horiz-adv-x="678" unicode="Y"/>
<glyph d="M-29 0l3 23l386 535h-264l25 157h560l-4 -22l-384 -535h280l-25 -158h-577z" glyph-name="Z" horiz-adv-x="625" unicode="Z"/>
<glyph d="M0 -148l146 924h305l-20 -131h-125l-105 -662h125l-21 -131h-305z" glyph-name="bracketleft" horiz-adv-x="409" unicode="["/>
<glyph d="M262 -148l-190 924h137l190 -924h-137z" glyph-name="backslash" horiz-adv-x="434" unicode="\"/>
<glyph d="M-27 -148l21 131h123l105 662h-124l21 131h304l-146 -924h-304z" glyph-name="bracketright" horiz-adv-x="517" unicode="]"/>
<glyph d="M43 393l212 322h157l116 -322h-149l-65 176l-117 -176h-154z" glyph-name="asciicircum" horiz-adv-x="531" unicode="^"/>
<glyph d="M-68 -161l14 86h434l-13 -86h-435z" glyph-name="underscore" horiz-adv-x="434" unicode="_"/>
<glyph d="M196 583l-93 166h178l40 -166h-125z" glyph-name="grave" horiz-adv-x="400" unicode="`"/>
<glyph d="M173 -12q-100 0 -144 66q-22 34 -22 79q0 146 168 175q47 8 107 8h77l2 14q12 72 -43 80q-8 1 -17 1q-61 -1 -76 -62h-168q32 157 190 183q30 5 62 5q235 0 230 -184q0 -22 -4 -45l-23 -145q-16 -102 -8 -163h-173q-5 27 -3 65q-60 -76 -155 -77zM244 108q60 0 85 47 q7 13 9 28l5 32h-56q-85 0 -98 -36q-4 -10 -4 -22q0 -36 38 -46q10 -3 21 -3z" glyph-name="a" horiz-adv-x="578" unicode="a"/>
<glyph d="M367 -12q-103 0 -151 71q-8 12 -13 25l-13 -84h-180l120 753h179l-48 -302q58 85 172 86q103 0 153 -85q34 -58 34 -141q0 -175 -97 -264q-66 -59 -156 -59zM317 123q68 0 100 75q18 43 18 100q0 97 -74 105q-6 1 -12 1q-66 0 -102 -69q-23 -46 -23 -106q0 -93 74 -105 q9 -1 19 -1z" glyph-name="b" horiz-adv-x="643" unicode="b"/>
<glyph d="M290 -11q-151 0 -221 94q-45 60 -45 146q0 156 102 242q79 65 192 65q163 0 220 -110q22 -45 25 -105h-168q-7 67 -62 75q-10 1 -19 1q-74 0 -100 -89q-11 -36 -11 -81q2 -107 93 -108q69 0 91 66q3 10 5 20h161q-20 -152 -151 -199q-50 -17 -112 -17z" glyph-name="c" horiz-adv-x="579" unicode="c"/>
<glyph d="M216 -12q-110 0 -162 90q-32 57 -32 138q0 175 100 263q68 58 161 58q116 -1 156 -86l48 302h180l-93 -590q-16 -103 -11 -163h-177q-4 23 -2 78v1q-62 -89 -168 -91zM293 122q68 0 103 72q21 45 21 105q0 84 -62 101q-13 4 -28 4q-70 0 -102 -75q-19 -43 -19 -100 q0 -93 67 -105q10 -2 20 -2z" glyph-name="d" horiz-adv-x="641" unicode="d"/>
<glyph d="M199 216q2 -104 98 -105q73 1 93 62h169q-27 -126 -153 -168q-52 -17 -114 -17q-154 0 -224 92q-45 59 -45 145q0 153 100 241q82 71 198 71q149 0 214 -98q50 -77 32 -194l-4 -25h-364v-4zM321 419q-81 -2 -110 -98h188q6 97 -78 98z" glyph-name="e" horiz-adv-x="595" unicode="e"/>
<glyph d="M33 401l19 122h66l11 66q22 137 150 167q33 8 69 8q53 0 93 -14l-21 -131q-22 8 -47 8q-58 -1 -68 -55l-8 -49h106l-19 -122h-106l-64 -401h-178l63 401h-66z" glyph-name="f" horiz-adv-x="382" unicode="f"/>
<glyph d="M294 156q73 0 105 70q17 37 17 83q0 66 -51 88q-17 8 -38 8q-71 0 -101 -72q-15 -35 -15 -75q0 -83 59 -99q12 -3 24 -3zM628 523l-78 -493q-24 -150 -130 -197q-62 -27 -156 -27q-199 0 -257 120q-16 34 -18 74h178q8 -54 64 -65q14 -3 28 -3q89 0 108 81q3 9 4 18 l12 75q-52 -79 -157 -80q-116 0 -168 89q-32 54 -32 131q0 145 89 227q69 64 166 64q116 -1 156 -86l12 72h179z" glyph-name="g" horiz-adv-x="640" unicode="g"/>
<glyph d="M11 0l119 753h179l-49 -313q63 96 173 97q107 0 140 -88q20 -54 8 -134l-50 -315h-179l47 302q13 89 -59 90q-80 0 -101 -86q-2 -9 -3 -17l-46 -289h-179z" glyph-name="h" horiz-adv-x="622" unicode="h"/>
<glyph d="M208 574q-61 0 -86 48q-10 20 -10 43q0 54 47 80q23 12 50 12q58 0 84 -46q12 -21 12 -45q0 -55 -48 -80q-23 -12 -49 -12zM16 0l83 523h178l-82 -523h-179z" glyph-name="i" horiz-adv-x="295" unicode="i"/>
<glyph d="M-76 -183l19 129q59 3 71 48q1 6 2 11l82 518h179l-85 -535q-21 -139 -161 -165q-47 -9 -107 -6zM207 574q-61 0 -86 48q-10 20 -10 43q0 54 47 80q23 12 50 12q58 0 84 -46q12 -21 12 -45q0 -55 -48 -80q-23 -12 -49 -12z" glyph-name="j" horiz-adv-x="295" unicode="j"/>
<glyph d="M11 0l119 753h179l-70 -439l175 209h194l-216 -242l140 -281h-193l-111 240l-38 -240h-179z" glyph-name="k" horiz-adv-x="576" unicode="k"/>
<glyph d="M16 0l118 753h179l-119 -753h-178z" glyph-name="l" horiz-adv-x="293" unicode="l"/>
<glyph d="M11 0l55 352q16 100 19 171h175q0 -47 -5 -86q51 79 136 96q20 4 39 4q106 -1 134 -97q73 97 178 97q106 0 138 -85q18 -51 7 -124l-51 -328h-179l48 305q12 86 -54 87q-61 0 -85 -64q-4 -14 -7 -29l-47 -299h-177l48 306q12 85 -54 86q-67 0 -88 -75l-4 -18l-47 -299 h-179z" glyph-name="m" horiz-adv-x="927" unicode="m"/>
<glyph d="M11 0l55 352q16 100 19 171h175q0 -51 -5 -89q66 102 178 103q107 0 140 -88q20 -54 8 -134l-50 -315h-179l47 302q13 89 -59 90q-80 0 -101 -86q-2 -9 -3 -17l-46 -289h-179z" glyph-name="n" horiz-adv-x="622" unicode="n"/>
<glyph d="M290 -12q-137 0 -210 83q-55 62 -56 156q-1 143 94 231q84 78 208 78q136 0 210 -82q56 -63 56 -159q0 -150 -100 -236q-82 -71 -202 -71zM293 121q80 0 108 94q11 39 11 87q0 77 -57 96q-15 5 -32 5q-76 0 -106 -86q-14 -40 -14 -92q0 -89 68 -102q11 -2 22 -2z" glyph-name="o" horiz-adv-x="615" unicode="o"/>
<glyph d="M432 537q105 0 155 -87q33 -57 33 -139q0 -177 -98 -265q-65 -58 -155 -58q-103 0 -151 71q-8 12 -13 25l-41 -259h-179l83 527q16 100 19 171h175q0 -42 -4 -81q62 94 176 95zM317 123q68 0 100 75q18 43 18 100q0 97 -74 105q-6 1 -12 1q-66 0 -102 -69 q-23 -46 -23 -106q0 -93 74 -105q9 -1 19 -1z" glyph-name="p" horiz-adv-x="643" unicode="p"/>
<glyph d="M340 -175l40 247q-56 -83 -164 -84q-110 0 -162 90q-32 57 -32 138q0 175 100 263q68 58 161 58q116 -1 156 -86l12 72h179l-110 -698h-180zM293 122q68 0 103 72q21 45 21 105q0 84 -62 101q-13 4 -28 4q-70 0 -102 -75q-19 -43 -19 -100q0 -93 67 -105q10 -2 20 -2z " glyph-name="q" horiz-adv-x="643" unicode="q"/>
<glyph d="M11 0l55 352q17 104 18 171h175q0 -53 -7 -111q52 102 148 115q20 3 42 3l-26 -167q-129 5 -169 -69q-14 -27 -20 -63l-37 -231h-179z" glyph-name="r" horiz-adv-x="429" unicode="r"/>
<glyph d="M231 -13q-173 0 -220 105q-14 33 -15 74h166q7 -58 74 -59q60 1 61 42q0 24 -30 35q-19 7 -59 15q-132 26 -161 98q-10 26 -10 59q0 112 105 158q56 23 129 23q212 -2 223 -169h-163q-4 43 -49 51q-8 1 -16 1q-59 -1 -60 -39q0 -23 35 -35q16 -6 47 -13q126 -25 162 -76 q24 -35 24 -89q0 -118 -117 -161q-55 -20 -126 -20z" glyph-name="s" horiz-adv-x="513" unicode="s"/>
<glyph d="M224 -12q-192 0 -162 195v2l34 216h-63l19 122h63l18 109h179l-17 -109h101l-18 -122h-102l-34 -211q-9 -55 36 -60h10q25 0 50 9l-21 -135q-40 -16 -93 -16z" glyph-name="t" horiz-adv-x="385" unicode="t"/>
<glyph d="M606 523l-56 -360q-16 -100 -13 -163h-175q-3 38 1 79q-64 -86 -155 -91h-11q-128 0 -156 105q-12 49 -2 115l50 315h179l-49 -312q-12 -89 57 -90q87 2 104 104l47 298h179z" glyph-name="u" horiz-adv-x="621" unicode="u"/>
<glyph d="M148 0l-102 523h185l48 -339l158 339h178l-273 -523h-194z" glyph-name="v" horiz-adv-x="580" unicode="v"/>
<glyph d="M119 0l-71 523h182l27 -314l131 314h145l29 -314l128 314h174l-244 -523h-172l-29 293l-125 -293h-175z" glyph-name="w" horiz-adv-x="830" unicode="w"/>
<glyph d="M-36 0l215 270l-122 253h197l59 -137l100 137h189l-201 -248l136 -275h-198l-68 156l-119 -156h-188z" glyph-name="x" horiz-adv-x="585" unicode="x"/>
<glyph d="M46 -175l127 234l-127 464h186l60 -281l141 281h178l-386 -698h-179z" glyph-name="y" horiz-adv-x="577" unicode="y"/>
<glyph d="M-32 0l2 18l281 371h-199l20 134h460l-3 -19l-286 -370h216l-21 -134h-470z" glyph-name="z" horiz-adv-x="505" unicode="z"/>
<glyph d="M314 -148q-205 3 -237 118q-14 53 10 123l26 80q26 80 -80 87h-3l20 124q93 0 106 54q2 12 2 26l-1 85q-1 145 98 194q70 34 205 34l-20 -130q-74 -4 -94 -38q-12 -22 -13 -64l-2 -96q-5 -110 -123 -134q96 -25 86 -113q-2 -16 -7 -31l-27 -89q-20 -66 14 -85 q20 -11 60 -14z" glyph-name="braceleft" horiz-adv-x="418" unicode="{"/>
<glyph d="M85 -148v924h125v-924h-125z" glyph-name="bar" horiz-adv-x="268" unicode="|"/>
<glyph d="M118 777q223 -3 241 -139q5 -45 -13 -102l-26 -79q-27 -80 79 -89h3l-19 -124q-88 2 -104 -45q-4 -14 -4 -32v-86q0 -145 -97 -195q-70 -34 -206 -34l21 130q75 4 94 41q11 22 12 61l3 100q6 109 123 130q-92 26 -86 110q1 16 6 33l27 90q20 66 -13 85q-20 12 -61 15z " glyph-name="braceright" horiz-adv-x="418" unicode="}"/>
<glyph d="M23 214q22 162 122 192q20 6 40 6q42 0 111 -30q33 -14 47 -14q39 2 50 46h116q-16 -133 -96 -180q-32 -18 -66 -18q-44 0 -112 30q-33 14 -47 14q-37 -2 -49 -46h-116z" glyph-name="asciitilde" horiz-adv-x="518" unicode="~"/>
<glyph glyph-name="uni00A0" horiz-adv-x="258" unicode=" "/>
<glyph d="M255 363l-50 -480h-202l104 480h148zM202 609q60 0 89 -48q13 -23 13 -50q0 -56 -47 -85q-26 -16 -56 -16q-59 0 -89 47q-15 24 -15 52q0 55 48 84q26 16 57 16z" glyph-name="exclamdown" horiz-adv-x="334" unicode="¡"/>
<glyph d="M209 -135l20 129q-129 21 -181 117q-26 50 -27 111q0 151 101 240q80 68 193 74l15 93h78l-16 -98q164 -25 185 -179q2 -15 3 -31h-162q-4 60 -47 77l-45 -285q71 13 88 92h156q-16 -130 -128 -185q-60 -30 -136 -32l-19 -123h-78zM195 224q1 -81 54 -104l45 282 q-79 -20 -95 -127q-4 -24 -4 -51z" glyph-name="cent" horiz-adv-x="594" unicode="¢"/>
<glyph d="M38 287l19 120h49q-4 27 -4 63q0 134 104 205q75 50 183 50q264 0 264 -239v-2h-191q0 77 -54 86q-9 1 -19 1q-90 -2 -91 -127v-37h185l-20 -120h-162v-7q0 -58 -25 -108q78 -22 101 -22q56 2 67 59h183q-20 -149 -128 -198q-45 -20 -100 -20q-58 0 -150 34 q-48 18 -68 18q-39 0 -49 -36q-1 -4 -2 -7h-151q20 119 101 167q11 6 22 11q20 44 20 94q0 10 -1 15h-83z" glyph-name="sterling" horiz-adv-x="657" unicode="£"/>
<glyph d="M69 294l10 71h138l-135 350h217l66 -233l141 233h200l-237 -350h139l-11 -71h-162l-8 -51h161l-11 -72h-161l-27 -171h-206l27 171h-162l11 72h162l8 51h-160z" glyph-name="yen" horiz-adv-x="646" unicode="¥"/>
<glyph d="M85 -148v449h125v-449h-125zM85 372v404h125v-404h-125z" glyph-name="brokenbar" horiz-adv-x="268" unicode="¦"/>
<glyph d="M259 -137q-141 0 -196 82q-27 43 -27 101h164q5 -61 66 -62q48 0 57 33q1 6 1 12q0 26 -46 47q-23 9 -58 21q-141 45 -179 112q-18 33 -18 73q1 116 132 154q-32 39 -32 88q0 123 108 175q57 26 130 26q187 0 213 -145q3 -18 4 -38h-167q-1 52 -44 59q-7 1 -14 1 q-56 -5 -59 -46q0 -27 42 -46q21 -9 56 -21q139 -44 178 -110q20 -35 20 -78q0 -102 -112 -145l-18 -6q35 -39 35 -89q0 -123 -110 -173q-55 -25 -126 -25zM366 221q46 12 47 44q0 25 -38 44q-16 8 -44 20l-80 34q-48 -8 -49 -44q0 -25 41 -46q15 -8 41 -18z" glyph-name="section" horiz-adv-x="606" unicode="§"/>
<glyph d="M156 580q-49 0 -74 41q-11 20 -11 42q0 48 42 72q21 12 44 12q49 0 74 -41q11 -20 11 -42q0 -48 -42 -72q-21 -12 -44 -12zM369 580q-50 0 -74 41q-11 20 -11 42q0 49 42 73q20 11 43 11q50 0 75 -42q11 -19 11 -41q0 -48 -42 -72q-21 -12 -44 -12z" glyph-name="dieresis" horiz-adv-x="400" unicode="¨"/>
<glyph d="M441 151q-156 0 -198 118q-14 38 -14 85v8q0 110 83 166q53 36 124 36q148 0 181 -114q6 -21 8 -43h-128q-8 58 -61 59q-62 0 -74 -73q-2 -15 -2 -31v-7q3 -103 78 -105q61 2 69 61h122q-6 -107 -100 -144q-40 -16 -88 -16zM433 31q137 0 229 93q93 93 93 235 q0 151 -102 244q-90 81 -218 81q-142 0 -234 -96q-89 -92 -89 -231q0 -151 104 -245q90 -81 217 -81zM433 -20q-156 0 -265.5 102.5t-117.5 255.5v19q0 153 105 261q104 108 257 116q12 1 23 1q160 0 269 -106q108 -103 114 -255v-15q0 -157 -107 -265q-105 -107 -260 -114 h-18z" glyph-name="copyright" horiz-adv-x="843" unicode="©"/>
<glyph d="M182 287q-79 0 -113 54q-17 26 -17 60q0 113 136 137q41 7 95 7h46l2 14q7 48 -26 55q-7 1 -15 1q-43 -1 -53 -45h-149q23 119 146 146q32 7 68 7q149 0 177 -87q13 -42 3 -107l-16 -102q-13 -78 -6 -129h-151q-3 18 -3 52q-45 -62 -124 -63zM248 392q55 2 65 51l4 23 h-40q-66 -5 -69 -41q2 -32 40 -33z" glyph-name="ordfeminine" horiz-adv-x="483" unicode="ª"/>
<glyph d="M128 70l-98 195l144 187h119l-143 -189l90 -193h-112zM306 70l-95 193l145 189h118l-143 -193l87 -189h-112z" glyph-name="guillemotleft" horiz-adv-x="480" unicode="«"/>
<glyph d="M209 396v219h90q90 -2 91 -71v-1q-1 -41 -37 -58l50 -89h-72l-40 75h-12v-75h-70zM279 516h15q27 2 28 23v1q-2 21 -28 22h-15v-46zM294 319q95 0 148 69q38 50 38 115q0 98 -73 150q-49 34 -113 34q-99 0 -151 -73q-34 -48 -34 -112q0 -97 74 -149q48 -34 111 -34z M294 281q-106 0 -174 76q-55 62 -55 145q0 102 77 168q65 55 152 55q108 0 176 -78q54 -62 54 -144q0 -104 -79 -169q-65 -53 -151 -53z" glyph-name="registered" horiz-adv-x="517" unicode="®"/>
<glyph d="M100 612l16 100h307l-15 -100h-308z" glyph-name="macron" horiz-adv-x="400" unicode="¯"/>
<glyph d="M270 451q56 0 80 50q11 24 11 52q0 61 -45 89q-20 12 -44 12q-58 0 -83 -52q-11 -24 -11 -52q0 -59 45 -87q22 -12 47 -12zM270 381q-85 0 -138 64q-38 47 -38 105q0 83 65 135q50 39 113 39q84 0 137 -65q37 -47 37 -106q0 -82 -65 -133q-49 -39 -111 -39z" glyph-name="degree" horiz-adv-x="453" unicode="°"/>
<glyph d="M198 176l27 165h-176l20 131h176l26 164h144l-26 -164h175l-20 -131h-176l-26 -165h-144zM-5 0l19 118h497l-18 -118h-498z" glyph-name="plusminus" horiz-adv-x="570" unicode="±"/>
<glyph d="M16 339l3 18l149 132q70 61 82 89q3 9 3 16q-2 28 -29 29q-34 0 -46 -50v-2h-122q17 114 119 142q28 7 59 7q127 0 147 -84q3 -14 3 -29q0 -52 -61 -110q-16 -15 -42 -37l-31 -26h109l-16 -95h-327z" glyph-name="twosuperior" horiz-adv-x="353" unicode="²"/>
<glyph d="M215 332q-146 0 -164 108q-2 13 -2 26h118q2 -41 42 -42q33 0 39 28q1 5 1 9q-2 30 -43 31h-28l12 74h33q44 2 45 34q-2 28 -34 29q-36 -2 -45 -38h-116q14 95 108 121q30 8 65 8q118 0 142 -69q5 -15 5 -33q0 -65 -72 -88q-3 0 -5 -1q63 -15 64 -77q0 -79 -86 -108 q-36 -12 -79 -12z" glyph-name="threesuperior" horiz-adv-x="374" unicode="³"/>
<glyph d="M178 583l73 166h182l-125 -166h-130z" glyph-name="acute" horiz-adv-x="400" unicode="´"/>
<glyph d="M198 -100l68 429h-3q-120 0 -171 75q-27 40 -27 95q0 132 109 187q59 29 136 29h242l-129 -815h-76l119 751h-75l-118 -751h-75z" glyph-name="paragraph" horiz-adv-x="551" unicode="¶"/>
<glyph d="M157 225q-57 0 -87 47q-15 25 -15 54q0 57 47 86q25 15 54 15q60 0 91 -48q15 -25 15 -53q0 -57 -48 -86q-27 -15 -57 -15z" glyph-name="periodcentered" horiz-adv-x="299" unicode="·"/>
<glyph d="M139 -226q-86 0 -115 55q-9 18 -11 38h85q6 -27 35 -28q27 0 32 25q1 4 1 8q-2 27 -32 28q-16 -1 -29 -10l-34 38l58 72h72l-37 -45q60 5 86 -37q12 -19 12 -42q0 -73 -72 -95q-24 -7 -51 -7z" glyph-name="cedilla" horiz-adv-x="400" unicode="¸"/>
<glyph d="M113 339l39 246l-89 -46l17 109l113 67h114l-60 -376h-134z" glyph-name="onesuperior" horiz-adv-x="286" unicode="¹"/>
<glyph d="M274 287q-130 0 -182 86q-26 44 -26 101q0 121 89 193q70 56 163 56q140 0 187 -98q20 -41 20 -92q0 -123 -91 -193q-69 -53 -160 -53zM285 402q54 0 75 70q9 30 9 64q-2 71 -61 72q-52 0 -75 -65q-10 -31 -10 -69q2 -71 62 -72z" glyph-name="ordmasculine" horiz-adv-x="522" unicode="º"/>
<glyph d="M351 452l98 -195l-145 -187h-118l143 189l-90 193h112zM173 452l95 -193l-145 -189h-119l144 193l-87 189h112z" glyph-name="guillemotright" horiz-adv-x="480" unicode="»"/>
<glyph d="M116 339l39 246l-89 -46l17 109l113 67h114l-60 -376h-134zM53 0l611 715h95l-611 -715h-95zM561 0l11 70h-187l8 49l197 257h159l-35 -219h48l-14 -87h-47l-11 -70h-129zM516 157h74l20 127z" glyph-name="onequarter" horiz-adv-x="801" unicode="¼"/>
<glyph d="M40 0l611 715h95l-611 -715h-95zM116 339l39 246l-89 -46l17 109l113 67h114l-60 -376h-134zM420 0l3 17l149 133q71 62 82 90q3 8 3 14q-2 29 -29 30q-34 0 -46 -51v-2h-122q17 116 120 143q27 7 58 7q127 0 147 -84q3 -14 3 -29q0 -52 -61 -110q-16 -15 -42 -37 l-31 -26h109l-16 -95h-327z" glyph-name="onehalf" horiz-adv-x="814" unicode="½"/>
<glyph d="M218 332q-146 0 -164 108q-2 13 -2 26h118q2 -41 42 -42q33 0 39 28q1 5 1 9q-2 30 -43 31h-28l12 74h33q44 2 45 34q-2 28 -34 29q-36 -2 -45 -38h-116q14 95 108 121q30 8 65 8q118 0 142 -69q5 -15 5 -33q0 -65 -72 -88q-3 0 -5 -1q63 -15 64 -77q0 -79 -86 -108 q-36 -12 -79 -12zM107 0l611 715h95l-611 -715h-95zM601 0l11 70h-187l8 49l197 257h159l-35 -219h48l-14 -87h-47l-11 -70h-129zM556 157h74l20 127z" glyph-name="threequarters" horiz-adv-x="842" unicode="¾"/>
<glyph d="M402 364l-4 -24q-13 -79 -101 -149q-9 -8 -20 -16q-55 -42 -64 -52q-22 -25 -22 -53q5 -49 58 -51q67 0 84 86v2h175q-19 -152 -144 -207q-59 -26 -132 -26q-153 0 -209 92q-24 40 -24 90q0 89 78 156q12 10 27 21q10 8 33 23q63 43 82 72q11 18 15 36h168zM340 610 q60 0 89 -48q13 -23 13 -50q0 -56 -48 -85q-26 -16 -56 -16q-58 0 -88 46q-16 25 -16 53q0 54 47 83q28 17 59 17z" glyph-name="questiondown" horiz-adv-x="556" unicode="¿"/>
<glyph d="M476 0l-17 133h-237l-59 -133h-196l342 715h265l114 -715h-212zM387 759l-86 146h185l33 -146h-132zM406 549l-122 -275h157z" glyph-name="Agrave" horiz-adv-x="738" unicode="À"/>
<glyph d="M476 0l-17 133h-237l-59 -133h-196l342 715h265l114 -715h-212zM368 759l64 146h188l-115 -146h-137zM406 549l-122 -275h157z" glyph-name="Aacute" horiz-adv-x="738" unicode="Á"/>
<glyph d="M476 0l-17 133h-237l-59 -133h-196l342 715h265l114 -715h-212zM249 759l131 146h150l93 -146h-125l-53 49l-64 -49h-132zM406 549l-122 -275h157z" glyph-name="Acircumflex" horiz-adv-x="738" unicode="Â"/>
<glyph d="M476 0l-17 133h-237l-59 -133h-196l342 715h265l114 -715h-212zM510 758q-33 0 -84 23q-23 11 -35 11q-27 -2 -36 -33h-101q19 121 97 147q18 6 37 6q30 0 82 -22q25 -11 39 -11q26 2 36 32h101q-19 -113 -92 -144q-22 -9 -44 -9zM406 549l-122 -275h157z" glyph-name="Atilde" horiz-adv-x="738" unicode="Ã"/>
<glyph d="M476 0l-17 133h-237l-59 -133h-196l342 715h265l114 -715h-212zM559 758q-50 0 -74 41q-11 20 -11 42q0 47 41 72q21 12 44 12q50 0 75 -42q11 -19 11 -41q0 -48 -42 -72q-21 -12 -44 -12zM336 758q-49 0 -74 41q-11 20 -11 42q0 47 41 72q21 12 44 12q50 0 75 -42 q11 -19 11 -41q0 -48 -42 -72q-21 -12 -44 -12zM406 549l-122 -275h157z" glyph-name="Adieresis" horiz-adv-x="738" unicode="Ä"/>
<glyph d="M476 0l-17 133h-237l-59 -133h-196l342 715h265l114 -715h-212zM446 744q-61 0 -97 49q-22 31 -22 67q0 60 52 95q32 21 69 21q63 0 98 -50q21 -30 21 -65q0 -60 -52 -95q-32 -22 -69 -22zM406 549l-122 -275h157zM446 810q33 0 44 31q3 10 3 20q0 40 -33 49q-6 1 -12 1 q-36 0 -45 -34q-2 -9 -2 -17q0 -40 33 -49q6 -1 12 -1z" glyph-name="Aring" horiz-adv-x="738" unicode="Å"/>
<glyph d="M-31 0l425 715h629l-25 -158h-282l-20 -123h225l-23 -144h-224l-21 -132h300l-25 -158h-504l23 146h-195l-84 -146h-199zM489 557l-158 -273h138l43 273h-23z" glyph-name="AE" horiz-adv-x="1002" unicode="Æ"/>
<glyph d="M315 -226q-86 0 -115 55q-9 18 -11 38h85q6 -27 35 -28q27 0 32 25q1 4 1 8q-2 27 -32 28q-16 -1 -29 -10l-34 38l54 68q-179 32 -235 178q-22 58 -22 129q0 194 115 312q110 111 285 111q204 0 278 -135q33 -59 36 -140h-206q-13 114 -114 115q-105 0 -152 -111 q-27 -63 -28 -144q0 -130 93 -155q20 -6 44 -6q101 0 136 100q4 10 6 19h203q-26 -165 -163 -238q-81 -43 -184 -43h-27l-26 -33q60 5 86 -37q12 -19 12 -42q0 -73 -72 -95q-24 -7 -51 -7z" glyph-name="Ccedilla" horiz-adv-x="762" unicode="Ç"/>
<glyph d="M334 759l-86 146h185l33 -146h-132zM27 0l113 715h493l-25 -158h-289l-19 -123h230l-22 -144h-231l-21 -132h306l-25 -158h-510z" glyph-name="Egrave" horiz-adv-x="614" unicode="È"/>
<glyph d="M307 759l64 146h188l-115 -146h-137zM27 0l113 715h493l-25 -158h-289l-19 -123h230l-22 -144h-231l-21 -132h306l-25 -158h-510z" glyph-name="Eacute" horiz-adv-x="614" unicode="É"/>
<glyph d="M199 759l131 146h150l93 -146h-125l-53 49l-64 -49h-132zM27 0l113 715h493l-25 -158h-289l-19 -123h230l-22 -144h-231l-21 -132h306l-25 -158h-510z" glyph-name="Ecircumflex" horiz-adv-x="614" unicode="Ê"/>
<glyph d="M27 0l113 715h493l-25 -158h-289l-19 -123h230l-22 -144h-231l-21 -132h306l-25 -158h-510zM287 758q-49 0 -74 41q-11 20 -11 42q0 47 41 72q21 12 44 12q50 0 75 -42q11 -19 11 -41q0 -48 -42 -72q-21 -12 -44 -12zM510 758q-50 0 -74 41q-11 20 -11 42q0 47 41 72 q21 12 44 12q50 0 75 -42q11 -19 11 -41q0 -48 -42 -72q-21 -12 -44 -12z" glyph-name="Edieresis" horiz-adv-x="614" unicode="Ë"/>
<glyph d="M31 0l113 715h207l-113 -715h-207zM194 759l-86 146h185l33 -146h-132z" glyph-name="Igrave" horiz-adv-x="353" unicode="Ì"/>
<glyph d="M31 0l113 715h207l-113 -715h-207zM172 759l64 146h188l-115 -146h-137z" glyph-name="Iacute" horiz-adv-x="353" unicode="Í"/>
<glyph d="M31 0l113 715h207l-113 -715h-207zM63 759l131 146h150l93 -146h-125l-53 49l-64 -49h-132z" glyph-name="Icircumflex" horiz-adv-x="353" unicode="Î"/>
<glyph d="M31 0l113 715h207l-113 -715h-207zM153 758q-49 0 -74 41q-11 20 -11 42q0 47 41 72q21 12 44 12q50 0 75 -42q11 -19 11 -41q0 -48 -42 -72q-21 -12 -44 -12zM376 758q-50 0 -74 41q-11 20 -11 42q0 47 41 72q21 12 44 12q50 0 75 -42q11 -19 11 -41q0 -48 -42 -72 q-21 -12 -44 -12z" glyph-name="Idieresis" horiz-adv-x="353" unicode="Ï"/>
<glyph d="M33 290l22 138h59l45 287h231q259 0 336 -165q27 -60 28 -139q0 -219 -145 -329q-108 -82 -273 -82h-290l46 290h-59zM272 157h65q141 0 186 127q18 51 18 118q-2 156 -156 157h-49l-21 -131h120l-22 -138h-120z" glyph-name="Eth" horiz-adv-x="766" unicode="Ð"/>
<glyph d="M546 758q-33 0 -84 23q-23 11 -35 11q-27 -2 -36 -33h-101q19 121 97 147q18 6 37 6q30 0 82 -22q25 -11 39 -11q26 2 36 32h101q-19 -113 -92 -144q-22 -9 -44 -9zM27 0l113 715h234l159 -402l64 402h182l-113 -715h-200l-186 449l-70 -449h-183z" glyph-name="Ntilde" horiz-adv-x="777" unicode="Ñ"/>
<glyph d="M407 759l-86 146h185l33 -146h-132zM804 409q0 -192 -121 -310q-115 -111 -293 -111q-161 0 -258 94q-88 86 -88 219q0 188 117 307q115 117 292 117q173 0 270 -100q81 -85 81 -216zM591 402q0 109 -74 147q-31 15 -70 16q-104 1 -156 -102q-34 -67 -34 -154 q0 -110 78 -146q30 -14 69 -14q104 0 155 104q32 65 32 149z" glyph-name="Ograve" unicode="Ò"/>
<glyph d="M386 759l64 146h188l-115 -146h-137zM804 409q0 -192 -121 -310q-115 -111 -293 -111q-161 0 -258 94q-88 86 -88 219q0 188 117 307q115 117 292 117q173 0 270 -100q81 -85 81 -216zM591 402q0 109 -74 147q-31 15 -70 16q-104 1 -156 -102q-34 -67 -34 -154 q0 -110 78 -146q30 -14 69 -14q104 0 155 104q32 65 32 149z" glyph-name="Oacute" unicode="Ó"/>
<glyph d="M276 759l131 146h150l93 -146h-125l-53 49l-64 -49h-132zM804 409q0 -192 -121 -310q-115 -111 -293 -111q-161 0 -258 94q-88 86 -88 219q0 188 117 307q115 117 292 117q173 0 270 -100q81 -85 81 -216zM591 402q0 109 -74 147q-31 15 -70 16q-104 1 -156 -102 q-34 -67 -34 -154q0 -110 78 -146q30 -14 69 -14q104 0 155 104q32 65 32 149z" glyph-name="Ocircumflex" unicode="Ô"/>
<glyph d="M532 758q-33 0 -84 23q-23 11 -35 11q-27 -2 -36 -33h-101q19 121 97 147q18 6 37 6q30 0 82 -22q25 -11 39 -11q26 2 36 32h101q-19 -113 -92 -144q-22 -9 -44 -9zM804 409q0 -192 -121 -310q-115 -111 -293 -111q-161 0 -258 94q-88 86 -88 219q0 188 117 307 q115 117 292 117q173 0 270 -100q81 -85 81 -216zM591 402q0 109 -74 147q-31 15 -70 16q-104 1 -156 -102q-34 -67 -34 -154q0 -110 78 -146q30 -14 69 -14q104 0 155 104q32 65 32 149z" glyph-name="Otilde" unicode="Õ"/>
<glyph d="M366 758q-49 0 -74 41q-11 20 -11 42q0 47 41 72q21 12 44 12q50 0 75 -42q11 -19 11 -41q0 -48 -42 -72q-21 -12 -44 -12zM589 758q-50 0 -74 41q-11 20 -11 42q0 47 41 72q21 12 44 12q50 0 75 -42q11 -19 11 -41q0 -48 -42 -72q-21 -12 -44 -12zM804 409 q0 -192 -121 -310q-115 -111 -293 -111q-161 0 -258 94q-88 86 -88 219q0 188 117 307q115 117 292 117q173 0 270 -100q81 -85 81 -216zM591 402q0 109 -74 147q-31 15 -70 16q-104 1 -156 -102q-34 -67 -34 -154q0 -110 78 -146q30 -14 69 -14q104 0 155 104q32 65 32 149 z" glyph-name="Odieresis" unicode="Ö"/>
<glyph d="M110 90l-83 96l173 152l-130 153l105 95l132 -155l174 152l84 -96l-175 -153l132 -153l-107 -94l-132 154z" glyph-name="multiply" horiz-adv-x="571" unicode="×"/>
<glyph d="M92 -32l-57 58l77 78q-68 81 -68 197q0 188 117 307q115 117 292 117q123 -1 214 -57l70 72l57 -58l-65 -66q75 -84 75 -207q0 -192 -121 -310q-115 -111 -293 -111q-127 1 -218 62zM597 401q0 42 -10 70l-285 -290q39 -32 102 -32q106 0 159 101q34 65 34 151zM252 310 q0 -32 6 -57l281 286q-38 24 -92 26q-106 1 -159 -100q-36 -66 -36 -155z" glyph-name="Oslash" unicode="Ø"/>
<glyph d="M391 759l-86 146h185l33 -146h-132zM369 -12q-226 0 -286 145q-29 72 -13 175l65 407h205l-65 -413q-21 -131 62 -150q16 -3 35 -3q77 0 105 64q12 29 20 76l67 426h207l-70 -444q-34 -213 -197 -265q-59 -18 -135 -18z" glyph-name="Ugrave" horiz-adv-x="764" unicode="Ù"/>
<glyph d="M381 759l64 146h188l-115 -146h-137zM369 -12q-226 0 -286 145q-29 72 -13 175l65 407h205l-65 -413q-21 -131 62 -150q16 -3 35 -3q77 0 105 64q12 29 20 76l67 426h207l-70 -444q-34 -213 -197 -265q-59 -18 -135 -18z" glyph-name="Uacute" horiz-adv-x="764" unicode="Ú"/>
<glyph d="M262 759l131 146h150l93 -146h-125l-53 49l-64 -49h-132zM369 -12q-226 0 -286 145q-29 72 -13 175l65 407h205l-65 -413q-21 -131 62 -150q16 -3 35 -3q77 0 105 64q12 29 20 76l67 426h207l-70 -444q-34 -213 -197 -265q-59 -18 -135 -18z" glyph-name="Ucircumflex" horiz-adv-x="764" unicode="Û"/>
<glyph d="M369 -12q-226 0 -286 145q-29 72 -13 175l65 407h205l-65 -413q-21 -131 62 -150q16 -3 35 -3q77 0 105 64q12 29 20 76l67 426h207l-70 -444q-34 -213 -197 -265q-59 -18 -135 -18zM349 758q-49 0 -74 41q-11 20 -11 42q0 47 41 72q21 12 44 12q50 0 75 -42 q11 -19 11 -41q0 -48 -42 -72q-21 -12 -44 -12zM572 758q-50 0 -74 41q-11 20 -11 42q0 47 41 72q21 12 44 12q50 0 75 -42q11 -19 11 -41q0 -48 -42 -72q-21 -12 -44 -12z" glyph-name="Udieresis" horiz-adv-x="764" unicode="Ü"/>
<glyph d="M197 0l48 307l-168 408h214l86 -238l157 238h205l-289 -419l-46 -296h-207zM345 759l64 146h188l-115 -146h-137z" glyph-name="Yacute" horiz-adv-x="678" unicode="Ý"/>
<glyph d="M344 715l-19 -118h56q198 0 249 -119q15 -37 15 -83q0 -151 -120 -219q-74 -41 -178 -41h-93l-21 -135h-206l113 715h204zM358 452h-55l-28 -177h65q92 0 107 77q3 14 3 28q-2 71 -92 72z" glyph-name="Thorn" horiz-adv-x="652" unicode="Þ"/>
<glyph d="M351 -10q-59 0 -109 18l22 132q25 -13 56 -13q96 0 106 107q1 12 1 24q0 89 -81 106q-19 3 -40 3l21 133q90 2 105 64q2 11 2 22q0 55 -51 65q-9 2 -19 2q-71 -2 -85 -92l-89 -561h-179l88 554q28 180 201 211q33 6 70 6q148 0 205 -83q27 -40 27 -94q0 -98 -98 -144 q-19 -8 -40 -14q96 -27 129 -115q14 -36 14 -78q0 -147 -103 -213q-63 -40 -153 -40z" glyph-name="germandbls" horiz-adv-x="633" unicode="ß"/>
<glyph d="M173 -12q-100 0 -144 66q-22 34 -22 79q0 146 168 175q47 8 107 8h77l2 14q12 72 -43 80q-8 1 -17 1q-61 -1 -76 -62h-168q32 157 190 183q30 5 62 5q235 0 230 -184q0 -22 -4 -45l-23 -145q-16 -102 -8 -163h-173q-5 27 -3 65q-60 -76 -155 -77zM244 108q60 0 85 47 q7 13 9 28l5 32h-56q-85 0 -98 -36q-4 -10 -4 -22q0 -36 38 -46q10 -3 21 -3zM260 583l-93 166h178l40 -166h-125z" glyph-name="agrave" horiz-adv-x="578" unicode="à"/>
<glyph d="M173 -12q-100 0 -144 66q-22 34 -22 79q0 146 168 175q47 8 107 8h77l2 14q12 72 -43 80q-8 1 -17 1q-61 -1 -76 -62h-168q32 157 190 183q30 5 62 5q235 0 230 -184q0 -22 -4 -45l-23 -145q-16 -102 -8 -163h-173q-5 27 -3 65q-60 -76 -155 -77zM244 108q60 0 85 47 q7 13 9 28l5 32h-56q-85 0 -98 -36q-4 -10 -4 -22q0 -36 38 -46q10 -3 21 -3zM260 583l73 166h182l-125 -166h-130z" glyph-name="aacute" horiz-adv-x="578" unicode="á"/>
<glyph d="M173 -12q-100 0 -144 66q-22 34 -22 79q0 146 168 175q47 8 107 8h77l2 14q12 72 -43 80q-8 1 -17 1q-61 -1 -76 -62h-168q32 157 190 183q30 5 62 5q235 0 230 -184q0 -22 -4 -45l-23 -145q-16 -102 -8 -163h-173q-5 27 -3 65q-60 -76 -155 -77zM244 108q60 0 85 47 q7 13 9 28l5 32h-56q-85 0 -98 -36q-4 -10 -4 -22q0 -36 38 -46q10 -3 21 -3zM136 585l144 163h128l96 -163h-120l-53 56l-68 -56h-127z" glyph-name="acircumflex" horiz-adv-x="578" unicode="â"/>
<glyph d="M173 -12q-100 0 -144 66q-22 34 -22 79q0 146 168 175q47 8 107 8h77l2 14q12 72 -43 80q-8 1 -17 1q-61 -1 -76 -62h-168q32 157 190 183q30 5 62 5q235 0 230 -184q0 -22 -4 -45l-23 -145q-16 -102 -8 -163h-173q-5 27 -3 65q-60 -76 -155 -77zM244 108q60 0 85 47 q7 13 9 28l5 32h-56q-85 0 -98 -36q-4 -10 -4 -22q0 -36 38 -46q10 -3 21 -3zM394 587q-33 0 -83 23q-22 10 -34 10q-26 -2 -35 -32h-97q21 130 99 152q15 4 29 4q30 0 80 -23q25 -11 39 -11q25 2 35 32h97q-21 -122 -95 -149q-17 -6 -35 -6z" glyph-name="atilde" horiz-adv-x="578" unicode="ã"/>
<glyph d="M173 -12q-100 0 -144 66q-22 34 -22 79q0 146 168 175q47 8 107 8h77l2 14q12 72 -43 80q-8 1 -17 1q-61 -1 -76 -62h-168q32 157 190 183q30 5 62 5q235 0 230 -184q0 -22 -4 -45l-23 -145q-16 -102 -8 -163h-173q-5 27 -3 65q-60 -76 -155 -77zM244 108q60 0 85 47 q7 13 9 28l5 32h-56q-85 0 -98 -36q-4 -10 -4 -22q0 -36 38 -46q10 -3 21 -3zM224 580q-49 0 -74 41q-11 20 -11 42q0 48 42 72q21 12 44 12q49 0 74 -41q11 -20 11 -42q0 -48 -42 -72q-21 -12 -44 -12zM437 580q-50 0 -74 41q-11 20 -11 42q0 49 42 73q20 11 43 11 q50 0 75 -42q11 -19 11 -41q0 -48 -42 -72q-21 -12 -44 -12z" glyph-name="adieresis" horiz-adv-x="578" unicode="ä"/>
<glyph d="M173 -12q-100 0 -144 66q-22 34 -22 79q0 146 168 175q47 8 107 8h77l2 14q12 72 -43 80q-8 1 -17 1q-61 -1 -76 -62h-168q32 157 190 183q30 5 62 5q235 0 230 -184q0 -22 -4 -45l-23 -145q-16 -102 -8 -163h-173q-5 27 -3 65q-60 -76 -155 -77zM244 108q60 0 85 47 q7 13 9 28l5 32h-56q-85 0 -98 -36q-4 -10 -4 -22q0 -36 38 -46q10 -3 21 -3zM328 642q33 0 44 31q3 10 3 20q0 38 -31 47q-7 2 -14 2q-33 0 -44 -31q-3 -10 -3 -20q0 -38 31 -47q7 -2 14 -2zM328 578q-63 0 -98 51q-19 28 -19 62q0 60 51 95q31 21 68 21q62 0 97 -50 q20 -30 20 -64q0 -61 -52 -95q-31 -20 -67 -20z" glyph-name="aring" horiz-adv-x="578" unicode="å"/>
<glyph d="M515 216q2 -104 96 -105q70 1 90 62h169q-28 -131 -158 -170q-48 -15 -106 -15q-153 1 -213 97q-61 -96 -196 -97q-122 0 -169 73q-21 33 -21 76q0 159 208 179q33 3 70 3h75l2 13q3 75 -62 79q-64 -1 -79 -62h-168q25 133 153 173q47 15 102 15q117 -1 164 -60 q74 59 168 59q155 0 214 -106q40 -74 24 -184l-4 -25h-359v-5zM635 419q-81 -2 -109 -100h185q5 99 -76 100zM244 108q67 0 89 56q4 11 6 23l5 31h-58q-84 0 -97 -38q-4 -10 -4 -23q0 -41 44 -48q8 -1 15 -1z" glyph-name="ae" horiz-adv-x="906" unicode="æ"/>
<glyph d="M226 -226q-86 0 -115 55q-9 18 -11 38h85q6 -27 35 -28q27 0 32 25q1 4 1 8q-2 27 -32 28q-16 -1 -29 -10l-34 38l55 69q-129 26 -171 134q-18 44 -18 98q0 156 102 242q79 65 192 65q163 0 220 -110q22 -45 25 -105h-168q-7 67 -62 75q-10 1 -19 1q-74 0 -100 -89 q-11 -36 -11 -81q2 -107 93 -108q69 0 91 66q3 10 5 20h161q-20 -152 -151 -199q-50 -17 -112 -17h-11l-28 -34q60 5 86 -37q12 -19 12 -42q0 -73 -72 -95q-24 -7 -51 -7z" glyph-name="ccedilla" horiz-adv-x="579" unicode="ç"/>
<glyph d="M199 216q2 -104 98 -105q73 1 93 62h169q-27 -126 -153 -168q-52 -17 -114 -17q-154 0 -224 92q-45 59 -45 145q0 153 100 241q82 71 198 71q149 0 214 -98q50 -77 32 -194l-4 -25h-364v-4zM276 583l-93 166h178l40 -166h-125zM321 419q-81 -2 -110 -98h188q6 97 -78 98z " glyph-name="egrave" horiz-adv-x="595" unicode="è"/>
<glyph d="M199 216q2 -104 98 -105q73 1 93 62h169q-27 -126 -153 -168q-52 -17 -114 -17q-154 0 -224 92q-45 59 -45 145q0 153 100 241q82 71 198 71q149 0 214 -98q50 -77 32 -194l-4 -25h-364v-4zM265 583l73 166h182l-125 -166h-130zM321 419q-81 -2 -110 -98h188q6 97 -78 98 z" glyph-name="eacute" horiz-adv-x="595" unicode="é"/>
<glyph d="M199 216q2 -104 98 -105q73 1 93 62h169q-27 -126 -153 -168q-52 -17 -114 -17q-154 0 -224 92q-45 59 -45 145q0 153 100 241q82 71 198 71q149 0 214 -98q50 -77 32 -194l-4 -25h-364v-4zM146 585l144 163h128l96 -163h-120l-53 56l-68 -56h-127zM321 419 q-81 -2 -110 -98h188q6 97 -78 98z" glyph-name="ecircumflex" horiz-adv-x="595" unicode="ê"/>
<glyph d="M199 216q2 -104 98 -105q73 1 93 62h169q-27 -126 -153 -168q-52 -17 -114 -17q-154 0 -224 92q-45 59 -45 145q0 153 100 241q82 71 198 71q149 0 214 -98q50 -77 32 -194l-4 -25h-364v-4zM450 580q-50 0 -74 41q-11 20 -11 42q0 49 42 73q20 11 43 11q50 0 75 -42 q11 -19 11 -41q0 -48 -42 -72q-21 -12 -44 -12zM237 580q-49 0 -74 41q-11 20 -11 42q0 48 42 72q21 12 44 12q49 0 74 -41q11 -20 11 -42q0 -48 -42 -72q-21 -12 -44 -12zM321 419q-81 -2 -110 -98h188q6 97 -78 98z" glyph-name="edieresis" horiz-adv-x="595" unicode="ë"/>
<glyph d="M16 0l83 523h178l-82 -523h-179zM140 583l-93 166h178l40 -166h-125z" glyph-name="igrave" horiz-adv-x="295" unicode="ì"/>
<glyph d="M125 583l73 166h182l-125 -166h-130zM16 0l83 523h178l-82 -523h-179z" glyph-name="iacute" horiz-adv-x="295" unicode="í"/>
<glyph d="M12 585l144 163h128l96 -163h-120l-53 56l-68 -56h-127zM16 0l83 523h178l-82 -523h-179z" glyph-name="icircumflex" horiz-adv-x="295" unicode="î"/>
<glyph d="M107 580q-49 0 -74 41q-11 20 -11 42q0 47 41 72q21 12 44 12q50 0 75 -42q11 -19 11 -41q0 -48 -42 -72q-21 -12 -44 -12zM316 580q-49 0 -74 41q-11 20 -11 42q0 47 41 72q21 12 44 12q50 0 75 -42q11 -19 11 -41q0 -48 -42 -72q-21 -12 -44 -12zM16 0l83 523h178 l-82 -523h-179z" glyph-name="idieresis" horiz-adv-x="295" unicode="ï"/>
<glyph d="M169 556l-21 63l118 41q-47 43 -113 93h211q33 -21 54 -39l111 39l21 -64l-79 -28q121 -135 125 -311v-11q0 -182 -102 -278q-80 -73 -204 -73q-150 0 -221 93q-46 62 -46 151q0 134 79 219q73 78 180 78q73 -1 117 -48q-29 66 -82 127zM203 223q0 -91 74 -101 q9 -1 17 -1q75 0 106 89q14 43 14 92q0 80 -62 97q-14 4 -30 4q-77 0 -106 -90q-13 -41 -13 -90z" glyph-name="eth" horiz-adv-x="620" unicode="ð"/>
<glyph d="M11 0l55 352q16 100 19 171h175q0 -51 -5 -89q66 102 178 103q107 0 140 -88q20 -54 8 -134l-50 -315h-179l47 302q13 89 -59 90q-80 0 -101 -86q-2 -9 -3 -17l-46 -289h-179zM419 587q-33 0 -83 23q-22 10 -34 10q-26 -2 -35 -32h-97q21 130 99 152q15 4 29 4 q30 0 80 -23q25 -11 39 -11q25 2 35 32h97q-21 -122 -95 -149q-17 -6 -35 -6z" glyph-name="ntilde" horiz-adv-x="622" unicode="ñ"/>
<glyph d="M290 -12q-137 0 -210 83q-55 62 -56 156q-1 143 94 231q84 78 208 78q136 0 210 -82q56 -63 56 -159q0 -150 -100 -236q-82 -71 -202 -71zM293 121q80 0 108 94q11 39 11 87q0 77 -57 96q-15 5 -32 5q-76 0 -106 -86q-14 -40 -14 -92q0 -89 68 -102q11 -2 22 -2zM279 583 l-93 166h178l40 -166h-125z" glyph-name="ograve" horiz-adv-x="615" unicode="ò"/>
<glyph d="M265 583l73 166h182l-125 -166h-130zM290 -12q-137 0 -210 83q-55 62 -56 156q-1 143 94 231q84 78 208 78q136 0 210 -82q56 -63 56 -159q0 -150 -100 -236q-82 -71 -202 -71zM293 121q80 0 108 94q11 39 11 87q0 77 -57 96q-15 5 -32 5q-76 0 -106 -86q-14 -40 -14 -92 q0 -89 68 -102q11 -2 22 -2z" glyph-name="oacute" horiz-adv-x="615" unicode="ó"/>
<glyph d="M151 585l144 163h128l96 -163h-120l-53 56l-68 -56h-127zM290 -12q-137 0 -210 83q-55 62 -56 156q-1 143 94 231q84 78 208 78q136 0 210 -82q56 -63 56 -159q0 -150 -100 -236q-82 -71 -202 -71zM293 121q80 0 108 94q11 39 11 87q0 77 -57 96q-15 5 -32 5 q-76 0 -106 -86q-14 -40 -14 -92q0 -89 68 -102q11 -2 22 -2z" glyph-name="ocircumflex" horiz-adv-x="615" unicode="ô"/>
<glyph d="M290 -12q-137 0 -210 83q-55 62 -56 156q-1 143 94 231q84 78 208 78q136 0 210 -82q56 -63 56 -159q0 -150 -100 -236q-82 -71 -202 -71zM293 121q80 0 108 94q11 39 11 87q0 77 -57 96q-15 5 -32 5q-76 0 -106 -86q-14 -40 -14 -92q0 -89 68 -102q11 -2 22 -2zM408 587 q-33 0 -83 23q-22 10 -34 10q-26 -2 -35 -32h-97q21 130 99 152q15 4 29 4q30 0 80 -23q25 -11 39 -11q25 2 35 32h97q-21 -122 -95 -149q-17 -6 -35 -6z" glyph-name="otilde" horiz-adv-x="615" unicode="õ"/>
<glyph d="M243 580q-49 0 -74 41q-11 20 -11 42q0 48 42 72q21 12 44 12q49 0 74 -41q11 -20 11 -42q0 -48 -42 -72q-21 -12 -44 -12zM456 580q-50 0 -74 41q-11 20 -11 42q0 49 42 73q20 11 43 11q50 0 75 -42q11 -19 11 -41q0 -48 -42 -72q-21 -12 -44 -12zM290 -12 q-137 0 -210 83q-55 62 -56 156q-1 143 94 231q84 78 208 78q136 0 210 -82q56 -63 56 -159q0 -150 -100 -236q-82 -71 -202 -71zM293 121q80 0 108 94q11 39 11 87q0 77 -57 96q-15 5 -32 5q-76 0 -106 -86q-14 -40 -14 -92q0 -89 68 -102q11 -2 22 -2z" glyph-name="odieresis" horiz-adv-x="615" unicode="ö"/>
<glyph d="M39 278l19 124h498l-19 -124h-498zM273 43q-56 0 -82 45q-12 22 -12 47q0 53 44 79q23 14 49 14q56 0 83 -46q13 -22 13 -47q0 -55 -47 -80q-22 -12 -48 -12zM321 452q-56 0 -82 46q-12 22 -12 47q0 52 44 79q23 13 49 13q56 0 83 -45q13 -22 13 -47q0 -54 -45 -80 q-23 -13 -50 -13z" glyph-name="divide" horiz-adv-x="572" unicode="÷"/>
<glyph d="M61 -39l-50 48l65 67q-52 63 -52 152q-1 143 94 231q84 78 208 78q90 -1 158 -41l65 67l50 -48l-62 -64q55 -64 55 -157q0 -152 -101 -237q-82 -69 -201 -69q-93 1 -162 42zM294 119q79 0 110 87q14 42 14 94q0 11 -2 26l-185 -190q24 -17 63 -17zM197 228q0 -18 1 -26 l182 187q-26 15 -56 15q-80 0 -112 -84q-15 -41 -15 -92z" glyph-name="oslash" horiz-adv-x="615" unicode="ø"/>
<glyph d="M606 523l-56 -360q-16 -100 -13 -163h-175q-3 38 1 79q-64 -86 -155 -91h-11q-128 0 -156 105q-12 49 -2 115l50 315h179l-49 -312q-12 -89 57 -90q87 2 104 104l47 298h179zM291 583l-93 166h178l40 -166h-125z" glyph-name="ugrave" horiz-adv-x="621" unicode="ù"/>
<glyph d="M285 583l73 166h182l-125 -166h-130zM606 523l-56 -360q-16 -100 -13 -163h-175q-3 38 1 79q-64 -86 -155 -91h-11q-128 0 -156 105q-12 49 -2 115l50 315h179l-49 -312q-12 -89 57 -90q87 2 104 104l47 298h179z" glyph-name="uacute" horiz-adv-x="621" unicode="ú"/>
<glyph d="M163 585l144 163h128l96 -163h-120l-53 56l-68 -56h-127zM606 523l-56 -360q-16 -100 -13 -163h-175q-3 38 1 79q-64 -86 -155 -91h-11q-128 0 -156 105q-12 49 -2 115l50 315h179l-49 -312q-12 -89 57 -90q87 2 104 104l47 298h179z" glyph-name="ucircumflex" horiz-adv-x="621" unicode="û"/>
<glyph d="M251 580q-49 0 -74 41q-11 20 -11 42q0 48 42 72q21 12 44 12q49 0 74 -41q11 -20 11 -42q0 -48 -42 -72q-21 -12 -44 -12zM464 580q-50 0 -74 41q-11 20 -11 42q0 49 42 73q20 11 43 11q50 0 75 -42q11 -19 11 -41q0 -48 -42 -72q-21 -12 -44 -12zM606 523l-56 -360 q-16 -100 -13 -163h-175q-3 38 1 79q-64 -86 -155 -91h-11q-128 0 -156 105q-12 49 -2 115l50 315h179l-49 -312q-12 -89 57 -90q87 2 104 104l47 298h179z" glyph-name="udieresis" horiz-adv-x="621" unicode="ü"/>
<glyph d="M46 -175l127 234l-127 464h186l60 -281l141 281h178l-386 -698h-179zM271 583l73 166h182l-125 -166h-130z" glyph-name="yacute" horiz-adv-x="577" unicode="ý"/>
<glyph d="M-17 -175l147 928h179l-49 -313q53 91 161 97h14q99 0 150 -83q35 -58 35 -143q0 -177 -98 -265q-65 -58 -155 -58q-95 0 -143 62q-13 18 -20 37l-42 -262h-179zM317 123q68 0 100 75q18 43 18 100q0 97 -74 105q-6 1 -12 1q-66 0 -102 -69q-23 -46 -23 -106 q0 -93 74 -105q9 -1 19 -1z" glyph-name="thorn" horiz-adv-x="644" unicode="þ"/>
</font>
</defs>
</svg>
