<?xml version="1.0" encoding="UTF-8"?>
<!DOCTYPE svg  PUBLIC '-//W3C//DTD SVG 1.1//EN'  'http://www.w3.org/Graphics/SVG/1.1/DTD/svg11.dtd'>
<svg version="1.1" xmlns="http://www.w3.org/2000/svg">
<defs>
<font id="Graphik-ThinItalic" horiz-adv-x="780">
<font-face font-family="Graphik Thin" font-style="italic" font-weight="250" ascent="818" bbox="-66 -210 946 920" cap-height="715" descent="-182" panose-1="2 11 2 3 3 2 2 13 2 3" slope="-8" underline-position="-100" underline-thickness="50" unicode-range="U+0020-00FE" units-per-em="1000" x-height="523"/>
<missing-glyph/>
<glyph glyph-name="space" horiz-adv-x="225" unicode=" "/>
<glyph d="M102 152l87 563h20l-91 -563h-16zM86 -5q-14 3 -17 17q3 14 17 17q14 -3 17 -17q-3 -14 -17 -17z" glyph-name="exclam" horiz-adv-x="254" unicode="!"/>
<glyph d="M101 548l25 167h20l-29 -167h-16zM194 548l25 167h20l-29 -167h-16z" glyph-name="quotedbl" horiz-adv-x="223" unicode='"'/>
<glyph d="M257 99l49 211h-148l-49 -211h-17l49 211h-98l2 16h100l44 186h-100l2 16h102l44 187h17l-44 -187h148l44 187h17l-44 -187h100l-2 -16h-102l-44 -186h102l-2 -16h-104l-49 -211h-17zM206 512l-44 -186h148l44 186h-148z" glyph-name="numbersign" horiz-adv-x="478" unicode="#"/>
<glyph d="M275 -6q-15 0 -22 1l-20 -130h-17l20 131q-148 13 -192 123q-12 33 -15 71h18q15 -150 169 -175q11 -2 23 -3l56 354q-146 41 -177 113q-11 25 -11 56q0 113 101 161q53 25 123 25q13 0 20 -1l15 93h17l-15 -94q132 -13 169 -112q7 -21 10 -45h-18q-21 125 -164 140 l-51 -324q127 -34 167 -78q33 -37 33 -98q0 -123 -103 -178q-58 -30 -136 -30zM495 202q0 76 -62 113q-39 24 -122 47l-55 -351h18q135 0 191 84q30 45 30 107zM126 535q0 -79 87 -121q34 -17 84 -31l51 320q-2 0 -8 1h-8q-135 0 -184 -82q-22 -38 -22 -87z" glyph-name="dollar" horiz-adv-x="582" unicode="$"/>
<glyph d="M113 552q1 -72 56 -105q29 -16 63 -16q79 0 118 63q22 38 22 86q-1 71 -54 105q-29 18 -66 18q-75 0 -115 -64q-24 -39 -24 -87zM232 415q-76 0 -115 59q-22 35 -22 78q0 82 59 132q43 35 98 35q73 0 113 -57q25 -37 25 -82q0 -93 -69 -139q-40 -26 -89 -26zM80 0 l590 715h21l-590 -715h-21zM398 132q1 -72 56 -105q29 -16 63 -16q79 0 118 63q22 38 22 86q-1 71 -54 105q-29 18 -66 18q-75 0 -115 -64q-24 -39 -24 -87zM517 -5q-76 0 -115 59q-22 35 -22 78q0 82 59 132q43 35 98 35q73 0 113 -57q25 -37 25 -82q0 -93 -69 -139 q-40 -26 -89 -26z" glyph-name="percent" horiz-adv-x="745" unicode="%"/>
<glyph d="M559 0h-22l-84 123q-104 -129 -230 -130q-106 0 -158 70q-32 44 -32 106q0 116 123 188q38 22 97 47q-59 86 -64 142q-1 9 -1 17q0 80 61 125q41 31 95 31q78 0 111 -63q16 -30 16 -67q0 -99 -137 -167q-23 -10 -55 -24l174 -247l136 202h21l-148 -215zM53 170 q0 -95 76 -138q41 -22 94 -22q120 2 220 127l-181 254q-116 -49 -159 -94q-50 -53 -50 -127zM343 702q-74 1 -113 -59q-23 -36 -23 -80q0 -60 59 -147q3 -3 4 -5q94 42 128 70q53 46 54 108q0 78 -61 104q-22 8 -48 9z" glyph-name="ampersand" horiz-adv-x="632" unicode="&amp;"/>
<glyph d="M101 548l25 167h20l-29 -167h-16z" glyph-name="quotesingle" horiz-adv-x="130" unicode="'"/>
<glyph d="M165 -148q-106 162 -106 361q0 254 158 462q40 53 87 98h20q-230 -227 -246 -519q-1 -21 -1 -41q0 -190 107 -361h-19z" glyph-name="parenleft" horiz-adv-x="273" unicode="("/>
<glyph d="M122 773q106 -162 106 -361q0 -254 -158 -462q-40 -53 -87 -98h-20q230 227 246 519q1 21 1 41q0 190 -107 361h19z" glyph-name="parenright" horiz-adv-x="273" unicode=")"/>
<glyph d="M136 448l-13 13l120 115l-135 62l8 17l133 -64l23 152h19l-25 -154l148 43l4 -17l-150 -41l78 -130l-16 -10l-77 130z" glyph-name="asterisk" horiz-adv-x="412" unicode="*"/>
<glyph d="M217 115l34 219h-204l3 16h204l35 219h18l-35 -219h204l-3 -16h-204l-34 -219h-18z" glyph-name="plus" horiz-adv-x="500" unicode="+"/>
<glyph d="M-10 -109l-14 7l69 140l18 -8z" glyph-name="comma" horiz-adv-x="166" unicode=","/>
<glyph d="M62 271l3 17h204l-3 -17h-204z" glyph-name="hyphen" horiz-adv-x="332" unicode="-"/>
<glyph d="M42 -5q-14 3 -17 17q3 14 17 17q14 -3 17 -17q-3 -14 -17 -17z" glyph-name="period" horiz-adv-x="166" unicode="."/>
<glyph d="M-44 -148l435 924h20l-435 -924h-20z" glyph-name="slash" horiz-adv-x="376" unicode="/"/>
<glyph d="M300 -6q-174 0 -226 139q-18 51 -18 114q0 47 7 89l13 82q33 212 172 278q54 25 119 25q172 0 221 -144q15 -48 16 -107q0 -48 -7 -90l-13 -82q-50 -303 -284 -304zM300 11q219 2 266 288l13 82q7 43 7 89q-1 174 -127 219q-41 15 -92 15q-160 0 -233 -152 q-28 -59 -40 -135l-13 -82q-7 -43 -7 -88q1 -183 141 -225q39 -11 85 -11z" glyph-name="zero" horiz-adv-x="634" unicode="0"/>
<glyph d="M146 0l109 688l-185 -112l3 19l196 120h8l-113 -715h-18z" glyph-name="one" horiz-adv-x="331" unicode="1"/>
<glyph d="M-30 0l1 5l342 286q107 89 140 158q22 48 22 100q0 100 -81 138q-37 17 -85 17q-138 0 -193 -124q-13 -27 -20 -59h-18q28 135 136 181q44 19 95 19q113 0 160 -80q24 -40 24 -92q0 -107 -93 -201q-27 -28 -70 -64l-319 -267h420l-3 -17h-458z" glyph-name="two" horiz-adv-x="518" unicode="2"/>
<glyph d="M238 -6q-125 0 -183 81q-34 49 -35 116h19q2 -120 101 -162q43 -18 98 -18q114 0 173 74q40 52 40 128q0 92 -70 131q-39 22 -93 22h-43l3 17h48q107 0 154 74q26 42 26 100q0 91 -74 128q-37 19 -85 19q-108 0 -166 -85q-24 -36 -34 -81h-18q19 104 107 154 q52 29 111 29q104 0 151 -70q26 -40 26 -94q0 -116 -92 -164q-25 -13 -55 -19q80 -17 109 -92q13 -33 13 -70q0 -126 -99 -185q-58 -33 -132 -33z" glyph-name="three" horiz-adv-x="524" unicode="3"/>
<glyph d="M366 0l27 173h-381l1 5l451 537h34l-83 -525h99l-3 -17h-99l-27 -173h-19zM46 190h350l81 513z" glyph-name="four" horiz-adv-x="569" unicode="4"/>
<glyph d="M232 -6q-118 0 -177 78q-32 44 -37 101h18q9 -96 91 -138q46 -24 105 -24q132 0 193 103q35 61 35 143q0 97 -69 149q-46 34 -108 34q-113 -1 -190 -88h-8l58 363h376l-3 -17h-358l-49 -311q49 54 134 67q20 3 40 3q105 0 160 -79q35 -52 35 -121q0 -139 -88 -211 q-65 -52 -158 -52z" glyph-name="five" horiz-adv-x="531" unicode="5"/>
<glyph d="M277 -6q-145 0 -195 108q-22 49 -22 113q0 32 9 92l12 75q44 273 198 325q41 14 91 14q136 0 174 -96q10 -25 12 -54h-18q-15 132 -168 133q-144 0 -212 -127q-39 -75 -59 -196l-12 -75q47 100 155 129q34 9 69 9q122 0 179 -76q36 -48 36 -115q0 -130 -86 -203 q-67 -56 -163 -56zM79 204q0 -119 89 -168q47 -25 109 -25q125 0 189 94q42 63 42 148q0 110 -94 153q-45 21 -103 21q-108 0 -176 -73q-56 -62 -56 -150z" glyph-name="six" horiz-adv-x="577" unicode="6"/>
<glyph d="M110 0l396 698h-414l3 17h440l-1 -5l-403 -710h-21z" glyph-name="seven" horiz-adv-x="480" unicode="7"/>
<glyph d="M262 -6q-113 0 -177 64q-49 50 -49 123q0 127 112 181q44 21 99 27q-82 20 -113 89q-14 32 -14 68q0 93 85 143q55 32 123 32q95 0 150 -62q38 -45 38 -104q0 -134 -132 -167q-17 -5 -35 -7q100 -23 136 -103q15 -35 15 -74q0 -128 -109 -182q-57 -28 -129 -28zM54 181 q0 -104 97 -148q50 -22 112 -22q124 0 182 76q37 48 37 118q0 93 -80 140q-52 31 -122 31q-118 0 -181 -70q-45 -51 -45 -125zM138 546q-1 -80 67 -124q47 -29 110 -29q112 0 158 71q25 39 25 91q0 82 -71 124q-43 25 -99 25q-95 0 -150 -57q-39 -42 -40 -101z" glyph-name="eight" horiz-adv-x="555" unicode="8"/>
<glyph d="M244 -6q-125 0 -174 85q-17 32 -22 70h18q14 -108 120 -132q27 -6 58 -6q125 0 186 88q54 77 79 235l12 75q-47 -100 -154 -130q-34 -9 -69 -9q-118 0 -177 75q-39 50 -39 121q0 131 89 203q66 52 160 52q132 0 187 -95q30 -53 30 -126q0 -32 -9 -92l-12 -75 q-38 -238 -144 -305q-55 -34 -139 -34zM100 466q0 -110 91 -156q47 -23 107 -23q105 0 173 74q58 63 58 150q0 119 -89 168q-47 25 -109 25q-127 0 -191 -94q-40 -61 -40 -144z" glyph-name="nine" horiz-adv-x="574" unicode="9"/>
<glyph d="M45 -5q-14 3 -17 17q3 14 17 17q14 -3 17 -17q-3 -14 -17 -17zM102 352q-14 3 -17 17q3 14 17 17q14 -3 17 -17q-3 -14 -17 -17z" glyph-name="colon" horiz-adv-x="172" unicode=":"/>
<glyph d="M-14 -109l-14 7l69 140l18 -8zM102 352q-14 3 -17 17q3 14 17 17q14 -3 17 -17q-3 -14 -17 -17z" glyph-name="semicolon" horiz-adv-x="172" unicode=";"/>
<glyph d="M408 115l-352 211l1 6l416 192l-3 -19l-386 -178l327 -194z" glyph-name="less" horiz-adv-x="487" unicode="&lt;"/>
<glyph d="M34 233l3 16h404l-3 -16h-404zM58 385l3 16h404l-3 -16h-404z" glyph-name="equal" horiz-adv-x="484" unicode="="/>
<glyph d="M96 524l352 -211l-1 -6l-416 -192l3 19l386 178l-327 194z" glyph-name="greater" horiz-adv-x="487" unicode="&gt;"/>
<glyph d="M180 152l11 72q10 71 64 122q20 19 60 51q68 54 82 68q47 51 47 117q0 85 -85 113q-30 9 -64 9q-129 0 -178 -115q-11 -26 -17 -57h-18q19 122 116 168q44 21 97 21q97 0 142 -57q26 -35 26 -82q0 -79 -62 -137q-3 -2 -74 -59q-1 -2 -2 -2q-67 -54 -87 -84 q-22 -33 -29 -78l-11 -70h-18zM166 -5q-14 3 -17 17q3 14 17 17q14 -3 17 -17q-3 -14 -17 -17z" glyph-name="question" horiz-adv-x="462" unicode="?"/>
<glyph d="M642 463l-36 -226q-22 -125 56 -145q14 -3 29 -3q78 0 121 79q33 62 33 155q0 166 -110 263q-100 86 -257 86q-151 0 -267 -102q-119 -103 -139 -256q-3 -27 -3 -54q0 -165 100 -273q109 -118 294 -118q179 0 283 97q18 17 31 34h18q-51 -80 -166 -120q-77 -27 -166 -27 q-206 0 -320 137q-92 112 -92 270q0 166 115 290q106 112 255 134q29 4 57 4q188 0 296 -119q89 -99 89 -245q0 -158 -88 -222q-40 -28 -85 -28q-81 0 -100 72q-6 22 -5 46q-25 -65 -83 -102q-39 -24 -81 -24q-86 0 -127 68q-24 41 -24 95q0 100 62 174q58 68 137 69 q77 0 116 -61q18 -28 22 -61l17 113h18zM421 82q75 0 129 75q46 65 47 145q1 97 -62 136q-29 18 -66 18q-85 0 -139 -83q-42 -65 -42 -144q0 -94 67 -131q29 -16 66 -16z" glyph-name="at" horiz-adv-x="902" unicode="@"/>
<glyph d="M540 0l-54 235h-355l-124 -235h-19l380 715h26l164 -715h-18zM379 701l-239 -449h342z" glyph-name="A" horiz-adv-x="630" unicode="A"/>
<glyph d="M53 0l113 715h179q121 0 165 -80q19 -35 19 -79q-2 -149 -166 -183q109 -13 140 -98q10 -28 10 -60q0 -129 -101 -184q-56 -31 -131 -31h-228zM74 17h207q129 0 183 85q30 47 30 113q0 108 -107 139q-38 11 -86 11h-172zM132 382h170q126 0 179 74q29 41 29 100 q0 92 -81 127q-37 15 -84 15h-163z" glyph-name="B" horiz-adv-x="582" unicode="B"/>
<glyph d="M366 -6q-168 0 -251 116q-59 83 -59 205q0 166 98 281q107 124 277 125q124 0 200 -79q52 -55 64 -132h-17q-22 115 -123 166q-56 28 -124 28q-168 0 -268 -124q-87 -109 -87 -265q0 -174 114 -254q72 -50 176 -50q153 0 240 111q33 44 52 99h18q-43 -141 -169 -198 q-65 -29 -141 -29z" glyph-name="C" horiz-adv-x="722" unicode="C"/>
<glyph d="M53 0l113 715h171q187 0 267 -130q45 -73 45 -174q0 -221 -142 -331q-105 -80 -264 -80h-190zM74 17h169q206 0 309 135q78 102 78 259q0 153 -101 230q-75 57 -192 57h-155z" glyph-name="D" horiz-adv-x="677" unicode="D"/>
<glyph d="M53 0l113 715h397l-3 -17h-378l-51 -320h314l-3 -17h-313l-55 -344h404l-4 -17h-421z" glyph-name="E" horiz-adv-x="566" unicode="E"/>
<glyph d="M53 0l113 715h393l-3 -17h-374l-51 -320h297l-3 -17h-296l-57 -361h-19z" glyph-name="F" horiz-adv-x="534" unicode="F"/>
<glyph d="M383 -6q-176 0 -264 120q-61 84 -61 203q0 170 102 285q107 118 270 119q140 0 216 -81q44 -47 54 -114h-19q-16 109 -125 155q-57 23 -126 23q-158 0 -258 -116q-95 -110 -95 -271q0 -150 97 -235q82 -71 209 -71q204 0 275 176q22 57 29 130h-238l3 17h256 q-20 -263 -210 -324q-53 -16 -115 -16z" glyph-name="G" horiz-adv-x="744" unicode="G"/>
<glyph d="M53 0l113 715h19l-55 -344h474l55 344h19l-113 -715h-19l56 354h-474l-56 -354h-19z" glyph-name="H" horiz-adv-x="702" unicode="H"/>
<glyph d="M58 0l113 715h19l-113 -715h-19z" glyph-name="I" horiz-adv-x="219" unicode="I"/>
<glyph d="M114 -4q-70 0 -117 29l3 18q51 -30 114 -30q125 0 148 138v2l89 562h19l-89 -563q-26 -155 -167 -156z" glyph-name="J" horiz-adv-x="378" unicode="J"/>
<glyph d="M503 0h-24l-339 368l430 347h26l-431 -348zM53 0l113 715h19l-113 -715h-19z" glyph-name="K" horiz-adv-x="579" unicode="K"/>
<glyph d="M53 0l113 715h19l-111 -698h372l-3 -17h-390z" glyph-name="L" horiz-adv-x="525" unicode="L"/>
<glyph d="M53 0l113 715h30l181 -680l406 680h31l-113 -715h-19l110 695l-415 -695h-9l-186 695l-110 -695h-19z" glyph-name="M" horiz-adv-x="846" unicode="M"/>
<glyph d="M53 0l113 715h29l353 -693l110 693h19l-113 -715h-25l-357 700l-110 -700h-19z" glyph-name="N" horiz-adv-x="701" unicode="N"/>
<glyph d="M752 389q0 -151 -93 -263q-99 -121 -254 -131q-13 -1 -25 -1q-163 0 -253 115q-71 91 -71 222q0 150 94 261q101 119 256 128q13 1 24 1q150 0 242 -105q80 -93 80 -227zM733 389q1 139 -87 229q-85 86 -216 86q-156 0 -258 -114q-94 -107 -97 -259q-2 -143 87 -234 q85 -86 218 -86q155 0 257 115q93 107 96 257v6z" glyph-name="O" unicode="O"/>
<glyph d="M53 0l113 715h156q194 0 218 -136q3 -18 3 -37q0 -186 -184 -214q-31 -5 -65 -5h-172l-51 -323h-18zM124 340h170q229 2 230 202q-2 155 -203 156h-140z" glyph-name="P" horiz-adv-x="552" unicode="P"/>
<glyph d="M672 -26l-81 87q-93 -67 -211 -67q-163 0 -253 115q-71 91 -71 222q0 150 94 261q101 119 256 128q13 1 24 1q150 0 242 -105q80 -93 80 -227q0 -150 -93 -263q-26 -30 -55 -54l80 -86zM380 11q110 1 199 63l-118 129l12 12l120 -131q106 87 133 231q7 37 7 74 q1 139 -87 229q-85 86 -216 86q-156 0 -258 -114q-94 -107 -97 -259q-2 -143 87 -234q85 -86 218 -86z" glyph-name="Q" unicode="Q"/>
<glyph d="M53 0l113 715h157q175 0 210 -113q8 -26 8 -56q-2 -188 -222 -201l184 -345h-20l-183 343h-175l-54 -343h-18zM128 360h156q185 0 226 109q12 34 12 77q0 128 -145 148q-26 4 -54 4h-142z" glyph-name="R" horiz-adv-x="581" unicode="R"/>
<glyph d="M266 -6q-160 0 -219 100q-23 42 -27 96h18q14 -147 163 -174q30 -5 64 -5q131 0 189 81q34 47 34 112q0 79 -64 118q-42 26 -128 49q-140 38 -176 96q-18 29 -18 68q0 117 102 163q50 23 116 23q156 0 199 -107q9 -24 12 -52h-18q-23 141 -192 142q-142 0 -185 -92 q-15 -34 -15 -77q0 -69 69 -106q40 -22 114 -42q131 -35 172 -84q31 -38 31 -99q0 -121 -100 -177q-60 -33 -141 -33z" glyph-name="S" horiz-adv-x="568" unicode="S"/>
<glyph d="M225 0l110 698h-238l3 17h495l-3 -17h-238l-110 -698h-19z" glyph-name="T" horiz-adv-x="557" unicode="T"/>
<glyph d="M315 -4q-179 0 -227 122q-23 61 -10 144l72 453h19l-72 -453q-29 -186 114 -234q46 -15 105 -15q174 0 227 144q13 35 20 79l76 479h19l-76 -479q-28 -180 -157 -224q-48 -16 -110 -16z" glyph-name="U" horiz-adv-x="666" unicode="U"/>
<glyph d="M258 0l-166 715h18l162 -692l361 692h19l-372 -715h-22z" glyph-name="V" horiz-adv-x="616" unicode="V"/>
<glyph d="M181 0l-83 715h18l81 -687l318 687h13l93 -689l306 689h19l-317 -715h-24l-90 675l-310 -675h-24z" glyph-name="W" horiz-adv-x="910" unicode="W"/>
<glyph d="M0 0l318 374l-179 341h19l174 -328l275 328h23l-289 -343l197 -372h-19l-191 359l-305 -359h-23z" glyph-name="X" horiz-adv-x="622" unicode="X"/>
<glyph d="M228 0l51 325l-194 390h19l187 -373l282 373h22l-297 -391l-51 -324h-19z" glyph-name="Y" horiz-adv-x="554" unicode="Y"/>
<glyph d="M-16 0l1 7l594 691h-449l3 17h479l-1 -7l-594 -691h479l-3 -17h-509z" glyph-name="Z" horiz-adv-x="577" unicode="Z"/>
<glyph d="M33 -148l146 924h185l-3 -16h-166l-141 -892h166l-3 -16h-184z" glyph-name="bracketleft" horiz-adv-x="322" unicode="["/>
<glyph d="M270 -148l-145 924h19l145 -924h-19z" glyph-name="backslash" horiz-adv-x="376" unicode="\"/>
<glyph d="M-27 -148l3 16h166l141 892h-166l3 16h183l-146 -924h-184z" glyph-name="bracketright" horiz-adv-x="322" unicode="]"/>
<glyph d="M75 438l210 277h16l123 -277h-20l-113 257l-195 -257h-21z" glyph-name="asciicircum" horiz-adv-x="445" unicode="^"/>
<glyph d="M-65 -142l3 17h385l-3 -17h-385z" glyph-name="underscore" horiz-adv-x="384" unicode="_"/>
<glyph d="M244 596l-55 147h19l53 -147h-17z" glyph-name="grave" horiz-adv-x="400" unicode="`"/>
<glyph d="M206 -7q-127 0 -162 84q-11 26 -11 56q2 158 218 159h175l7 47q23 174 -148 175q-141 -2 -181 -131h-18q28 108 131 138q33 9 68 9q141 0 165 -107q8 -38 1 -85l-31 -196q-8 -52 -14 -142h-18q1 31 7 90q-39 -64 -119 -87q-34 -10 -70 -10zM206 9q95 0 155 61 q35 37 43 82l19 124h-172q-171 0 -196 -102q-4 -20 -4 -41q0 -88 84 -114q32 -10 71 -10z" glyph-name="a" horiz-adv-x="515" unicode="a"/>
<glyph d="M295 -7q-120 0 -180 98q-24 41 -31 86l-28 -177h-18l122 773h18l-62 -394q45 97 135 134q43 17 89 17q99 0 159 -78q50 -66 50 -159q0 -156 -88 -238q-66 -62 -166 -62zM295 9q136 0 199 117q37 71 37 167q0 121 -80 183q-49 38 -111 38q-119 0 -190 -104 q-53 -78 -55 -173q-2 -128 82 -191q51 -37 118 -37z" glyph-name="b" horiz-adv-x="586" unicode="b"/>
<glyph d="M268 -7q-126 0 -187 94q-39 61 -39 144q0 134 83 221q76 78 186 78q103 0 158 -71q31 -42 35 -96h-18q-4 82 -74 124q-44 27 -102 27q-123 0 -194 -99q-56 -79 -56 -184q0 -125 85 -185q52 -37 123 -37q124 0 183 97q18 29 27 64h18q-29 -123 -139 -162q-41 -15 -89 -15z " glyph-name="c" horiz-adv-x="539" unicode="c"/>
<glyph d="M250 -7q-107 0 -167 81q-46 62 -46 151q0 138 81 227q73 78 180 78q119 0 176 -100q22 -40 28 -84l68 427h18l-95 -600q-12 -76 -19 -173h-18q2 59 14 143q-46 -103 -142 -137q-37 -13 -78 -13zM250 9q119 0 189 105q50 77 52 172q2 134 -83 195q-47 33 -110 33 q-123 0 -191 -103q-52 -79 -52 -186q0 -125 85 -183q49 -33 110 -33z" glyph-name="d" horiz-adv-x="588" unicode="d"/>
<glyph d="M57 219q0 -161 121 -199q34 -11 75 -11q147 1 200 132h18q-47 -131 -184 -146q-17 -2 -34 -2q-156 0 -200 128q-15 44 -15 98q0 136 77 226q73 84 184 85q131 0 177 -101q28 -62 15 -146l-2 -13h-429q-3 -26 -3 -51zM299 514q-127 0 -195 -111q-31 -52 -42 -117h412 q20 139 -61 197q-45 31 -114 31z" glyph-name="e" horiz-adv-x="529" unicode="e"/>
<glyph d="M61 507l3 16h85l16 98q27 154 158 155q30 0 57 -8l-2 -16q-26 8 -55 8q-97 0 -129 -94q-7 -21 -11 -46l-16 -97h166l-3 -16h-165l-80 -507h-18l80 507h-86z" glyph-name="f" horiz-adv-x="317" unicode="f"/>
<glyph d="M255 33q115 1 186 98q58 80 58 185q0 111 -76 165q-48 33 -116 33q-121 1 -191 -95q-55 -76 -55 -181q0 -114 76 -169q49 -36 118 -36zM554 523l-80 -508q-26 -162 -174 -193q-32 -7 -68 -7q-126 0 -185 73q-28 36 -35 82h18q15 -95 114 -126q40 -13 88 -13 q151 0 204 116q14 31 20 68l24 153q-45 -94 -131 -132q-45 -19 -95 -19q-120 0 -177 90q-34 56 -34 131q0 134 83 218q74 74 181 74q123 0 178 -95q18 -32 26 -71l25 159h18z" glyph-name="g" horiz-adv-x="594" unicode="g"/>
<glyph d="M38 0l122 773h18l-59 -373q42 82 125 115q40 15 83 15q117 0 153 -90q22 -54 10 -130l-49 -310h-18l49 310q23 145 -70 189q-32 15 -75 15q-94 0 -159 -69q-50 -52 -62 -128l-50 -317h-18z" glyph-name="h" horiz-adv-x="559" unicode="h"/>
<glyph d="M151 639q-14 3 -17 17q3 14 17 17q14 -3 17 -17q-3 -14 -17 -17zM40 0l82 523h18l-82 -523h-18z" glyph-name="i" horiz-adv-x="182" unicode="i"/>
<glyph d="M-66 -184l3 16q60 3 79 49q7 18 11 43l95 599h18l-95 -599q-13 -79 -61 -99q-20 -8 -50 -9zM151 639q-14 3 -17 17q3 14 17 17q14 -3 17 -17q-3 -14 -17 -17z" glyph-name="j" horiz-adv-x="182" unicode="j"/>
<glyph d="M368 0l-262 281l323 242h26l-324 -243l260 -280h-23zM38 0l122 773h18l-122 -773h-18z" glyph-name="k" horiz-adv-x="452" unicode="k"/>
<glyph d="M40 0l122 773h18l-122 -773h-18z" glyph-name="l" horiz-adv-x="182" unicode="l"/>
<glyph d="M38 0l61 389q10 64 15 134h18q-2 -54 -13 -121q69 127 191 128q111 0 143 -90q9 -26 11 -57q33 86 111 126q43 21 89 21q127 0 151 -111q9 -47 0 -109l-49 -310h-18l49 310q28 179 -98 201q-17 3 -35 3q-90 0 -151 -75q-41 -51 -52 -122l-50 -317h-18l49 310 q26 165 -81 197q-23 7 -51 7q-90 0 -151 -74q-42 -52 -53 -123l-50 -317h-18z" glyph-name="m" horiz-adv-x="884" unicode="m"/>
<glyph d="M38 0l61 389q10 64 15 134h18q-2 -57 -13 -123q42 82 125 115q40 15 83 15q117 0 153 -90q22 -54 10 -130l-49 -310h-18l49 310q23 145 -70 189q-32 15 -75 15q-94 0 -159 -69q-50 -52 -62 -128l-50 -317h-18z" glyph-name="n" horiz-adv-x="559" unicode="n"/>
<glyph d="M263 -7q-112 0 -177 86q-49 65 -49 152q0 131 80 217q76 81 191 81q116 0 179 -92q43 -63 43 -145q0 -144 -87 -229q-73 -70 -180 -70zM263 9q128 0 197 102q52 76 52 181q0 108 -69 172q-55 49 -135 49q-132 0 -203 -105q-50 -76 -50 -177q0 -104 69 -169 q58 -53 139 -53z" glyph-name="o" horiz-adv-x="567" unicode="o"/>
<glyph d="M340 530q99 0 159 -78q50 -66 50 -159q0 -156 -88 -238q-66 -62 -166 -62q-121 0 -181 101q-23 39 -30 81l-57 -357h-18l84 532q16 103 21 173h18q-2 -57 -17 -148q47 106 144 141q39 14 81 14zM295 9q136 0 199 117q37 71 37 167q0 121 -80 183q-49 38 -111 38 q-119 0 -190 -104q-53 -78 -55 -173q-2 -128 82 -191q51 -37 118 -37z" glyph-name="p" horiz-adv-x="586" unicode="p"/>
<glyph d="M419 -182l51 325q-46 -103 -142 -137q-37 -13 -78 -13q-107 0 -167 81q-46 62 -46 151q0 138 81 227q73 78 180 78q119 0 176 -100q22 -40 28 -84l28 177h18l-111 -705h-18zM250 9q119 0 189 105q50 77 52 172q2 134 -83 195q-47 33 -110 33q-123 0 -191 -103 q-52 -79 -52 -186q0 -125 85 -183q49 -33 110 -33z" glyph-name="q" horiz-adv-x="588" unicode="q"/>
<glyph d="M38 0l61 389q10 64 15 134h18q-2 -60 -14 -129q59 128 204 133l-3 -16q-126 -4 -184 -114q-23 -45 -33 -104l-46 -293h-18z" glyph-name="r" horiz-adv-x="316" unicode="r"/>
<glyph d="M200 -9q-151 0 -182 115q-6 21 -7 45h18q11 -143 171 -144q104 0 144 64q18 29 18 67q0 60 -53 91q-30 16 -85 32q-105 32 -134 70q-20 27 -20 65q0 85 84 118q38 15 84 15q157 -2 170 -131h-18q-14 114 -152 115q-104 0 -137 -63q-13 -24 -13 -54q0 -55 51 -84 q31 -17 91 -35q101 -30 130 -68q20 -29 20 -71q0 -92 -87 -129q-42 -18 -93 -18z" glyph-name="s" horiz-adv-x="444" unicode="s"/>
<glyph d="M175 -7q-89 0 -97 84q-2 23 2 50l60 380h-80l3 16h79l19 119h18l-19 -119h155l-3 -16h-154l-60 -380q-17 -117 77 -118q36 0 67 12l-3 -16q-28 -12 -64 -12z" glyph-name="t" horiz-adv-x="319" unicode="t"/>
<glyph d="M513 523l-61 -389q-10 -68 -13 -134h-18q2 55 11 121q-43 -85 -130 -115q-37 -13 -77 -13q-118 0 -153 92q-20 53 -8 128l49 310h18l-49 -310q-24 -149 71 -191q32 -13 72 -13q94 0 159 69q49 53 61 128l50 317h18z" glyph-name="u" horiz-adv-x="555" unicode="u"/>
<glyph d="M196 0l-130 523h18l127 -505l277 505h19l-285 -523h-26z" glyph-name="v" horiz-adv-x="493" unicode="v"/>
<glyph d="M155 0l-85 523h18l82 -502l236 502h14l86 -502l234 502h19l-243 -523h-24l-83 489l-230 -489h-24z" glyph-name="w" horiz-adv-x="749" unicode="w"/>
<glyph d="M-11 0l241 273l-147 250h21l139 -238l209 238h22l-221 -252l159 -271h-21l-152 259l-228 -259h-22z" glyph-name="x" horiz-adv-x="485" unicode="x"/>
<glyph d="M78 -182l122 218l-134 487h18l129 -466l261 466h20l-396 -705h-20z" glyph-name="y" horiz-adv-x="480" unicode="y"/>
<glyph d="M-16 0l1 5l449 502h-339l3 16h370l-1 -5l-449 -502h360l-3 -16h-391z" glyph-name="z" horiz-adv-x="457" unicode="z"/>
<glyph d="M236 -144q-140 9 -144 111q-1 37 16 82l45 126q43 120 -69 142q-15 3 -32 4l3 16q135 0 143 104q1 12 0 25l-6 132q-5 119 74 156q42 18 116 22l-3 -16q-108 -6 -144 -50q-29 -38 -26 -112l6 -131q5 -116 -101 -138q-6 -1 -11 -2q73 -18 78 -87q1 -32 -12 -70l-45 -126 q-55 -159 115 -172z" glyph-name="braceleft" horiz-adv-x="341" unicode="{"/>
<glyph d="M114 -148v924h18v-924h-18z" glyph-name="bar" horiz-adv-x="226" unicode="|"/>
<glyph d="M120 776q140 -9 144 -111q1 -37 -16 -82l-45 -126q-43 -120 69 -142q15 -3 32 -4l-3 -16q-135 0 -143 -104q-1 -12 0 -25l6 -132q5 -119 -74 -156q-42 -18 -116 -22l3 16q108 6 144 50q29 38 26 112l-6 131q-5 116 101 138q6 1 11 2q-73 18 -78 87q-1 32 12 70l45 126 q55 159 -115 172z" glyph-name="braceright" horiz-adv-x="341" unicode="}"/>
<glyph d="M48 242q17 76 72 87q9 2 17 2q32 0 84 -36q50 -34 76 -35q50 0 68 62q2 6 3 11h18q-17 -76 -72 -87q-9 -2 -17 -2q-33 0 -85 37q-49 34 -75 34q-47 0 -67 -58q-2 -8 -4 -15h-18z" glyph-name="asciitilde" horiz-adv-x="429" unicode="~"/>
<glyph glyph-name="uni00A0" unicode=" "/>
<glyph d="M162 446l-87 -563h-20l91 563h16zM178 603q14 -3 17 -17q-3 -14 -17 -17q-14 3 -17 17q3 14 17 17z" glyph-name="exclamdown" horiz-adv-x="254" unicode="¡"/>
<glyph d="M268 -7q-14 0 -21 1l-20 -129h-17l20 131q-112 14 -161 111q-27 55 -27 124q0 134 83 221q76 78 186 78h4l16 99h17l-16 -100q98 -8 145 -82q24 -38 27 -84h-18q-4 82 -74 124q-37 22 -83 26l-79 -504h18q124 0 183 97q18 29 27 64h18q-29 -123 -139 -162 q-41 -15 -89 -15zM60 231q0 -125 84 -185q39 -28 89 -35l79 503h-2q-123 0 -194 -99q-56 -79 -56 -184z" glyph-name="cent" horiz-adv-x="539" unicode="¢"/>
<glyph d="M61 342l3 16h80q-11 88 -11 121q0 140 93 203q58 39 140 39q141 0 179 -110q11 -30 12 -66h-18q-5 116 -102 149q-32 10 -71 10q-132 0 -186 -101q-28 -53 -28 -124q0 -34 11 -121h246l-3 -16h-241q5 -40 5 -73q-1 -105 -48 -174q42 0 121 -39q84 -41 129 -45h13 q70 0 104 63q15 28 20 63h19q-11 -93 -82 -129q-29 -14 -61 -14q-53 0 -141 43q-88 38 -123 41q-62 0 -88 -54q-6 -12 -9 -24h-20q15 61 68 85q13 5 26 8q53 69 53 176q0 34 -5 73h-85z" glyph-name="sterling" horiz-adv-x="581" unicode="£"/>
<glyph d="M69 333l3 16h190l-163 366h20l160 -359l259 359h21l-265 -366h187l-3 -16h-193l-19 -120h193l-3 -16h-192l-31 -197h-19l31 197h-198l3 16h197l19 120h-197z" glyph-name="yen" horiz-adv-x="516" unicode="¥"/>
<glyph d="M114 -148v445h18v-445h-18zM114 367v409h18v-409h-18z" glyph-name="brokenbar" horiz-adv-x="226" unicode="¦"/>
<glyph d="M215 -137q-107 0 -151 74q-17 30 -21 67h19q11 -90 94 -116q28 -8 59 -8q85 -1 128 56q26 35 26 81q0 69 -69 110q-29 17 -74 34q-123 46 -152 103q-13 25 -13 55q1 107 169 139q-65 44 -66 119q0 72 62 116q45 31 104 31q103 0 137 -72q11 -27 12 -61h-18q0 81 -73 107 q-26 9 -58 9q-80 1 -122 -54q-25 -33 -25 -75q0 -68 66 -111q29 -18 71 -35q114 -46 144 -99q15 -27 15 -61q0 -88 -109 -124q-24 -8 -51 -12q68 -42 69 -119q0 -82 -69 -126q-45 -28 -104 -28zM302 149q120 16 150 84q8 18 8 39q0 63 -70 106q-28 17 -73 37l-70 31 q-134 -22 -160 -87q-7 -19 -7 -40q0 -70 92 -116q24 -12 55 -24z" glyph-name="section" horiz-adv-x="530" unicode="§"/>
<glyph d="M190 639q-14 3 -17 17q3 14 17 17q14 -3 17 -17q-3 -14 -17 -17zM332 639q-14 3 -17 17q3 14 17 17q14 -3 17 -17q-3 -14 -17 -17z" glyph-name="dieresis" horiz-adv-x="400" unicode="¨"/>
<glyph d="M437 146q-109 0 -163 85q-35 55 -35 129v6q0 107 75 170q54 44 122 44q102 0 149 -71q17 -26 23 -57h-18q-20 89 -110 108q-21 4 -44 4q-89 0 -141 -72q-38 -54 -38 -126v-6q0 -116 78 -169q44 -29 102 -29q98 0 141 74q12 22 18 48h17q-16 -87 -95 -122q-38 -16 -81 -16 zM433 6q147 0 248 100q102 104 103 253q0 146 -99 247q-101 103 -250 103q-146 0 -247 -100q-101 -108 -104 -252q0 -148 101 -250q104 -99 248 -101zM433 -9q-149 0 -255 101q-106 102 -111 252v13q0 149 101 255q101 105 249 112h18q153 0 259 -104q103 -102 107 -250v-11 q0 -153 -104 -259q-102 -104 -252 -109h-12z" glyph-name="copyright" horiz-adv-x="844" unicode="©"/>
<glyph d="M199 316q-97 0 -122 68q-6 18 -6 38q2 120 173 120h119l6 35q15 127 -108 128q-102 -2 -132 -96h-18q22 85 105 106q22 6 45 6q115 0 128 -92q2 -25 -2 -53l-23 -147q-8 -50 -10 -108h-18q0 18 4 65q-35 -57 -112 -68q-14 -2 -29 -2zM201 332q76 0 120 52q21 26 26 55 l14 87h-118q-120 0 -146 -59q-8 -19 -8 -44q0 -70 71 -87q19 -4 41 -4z" glyph-name="ordfeminine" horiz-adv-x="417" unicode="ª"/>
<glyph d="M160 83l-112 178l168 178h22l-169 -179l110 -177h-19zM294 83l-112 178l168 178h22l-169 -179l110 -177h-19z" glyph-name="guillemotleft" horiz-adv-x="387" unicode="«"/>
<glyph d="M221 387v243h72q68 0 81 -48q2 -9 2 -19v-1q-2 -54 -65 -63l78 -112h-20l-78 111h-53v-111h-17zM238 513h56q63 2 64 49v1q-2 50 -64 51h-56v-101zM293 297q98 0 158 73q47 57 47 133q0 98 -72 159q-57 47 -133 47q-96 0 -157 -73q-48 -58 -48 -134q0 -99 74 -159 q57 -46 131 -46zM293 282q-103 0 -169 75q-53 62 -53 145q0 102 76 168q63 54 146 54q104 0 170 -77q52 -62 52 -144q0 -104 -77 -169q-62 -52 -145 -52z" glyph-name="registered" horiz-adv-x="514" unicode="®"/>
<glyph d="M150 646l3 17h219l-3 -17h-219z" glyph-name="macron" horiz-adv-x="400" unicode="¯"/>
<glyph d="M238 468q70 1 105 57q20 31 20 69q0 62 -51 95q-30 19 -67 19q-64 0 -102 -52q-24 -33 -24 -73q0 -62 52 -96q30 -19 67 -19zM238 452q-72 0 -113 56q-24 34 -24 75q0 67 56 111q40 30 88 30q71 0 111 -55q25 -34 25 -75q0 -71 -57 -114q-39 -28 -86 -28z" glyph-name="degree" horiz-adv-x="384" unicode="°"/>
<glyph d="M217 115l34 219h-204l3 16h204l35 219h18l-35 -219h204l-3 -16h-204l-34 -219h-18zM-6 0l3 16h426l-3 -16h-426z" glyph-name="plusminus" horiz-adv-x="500" unicode="±"/>
<glyph d="M36 370l1 7l151 122q61 49 78 79q14 25 14 52q0 48 -42 66q-16 7 -35 7q-76 0 -101 -76q-3 -8 -5 -16h-17q14 77 80 100q21 7 43 7q66 0 88 -51q7 -18 7 -37q0 -56 -58 -109q-13 -11 -41 -34l-125 -101h195l-3 -16h-230z" glyph-name="twosuperior" horiz-adv-x="284" unicode="²"/>
<glyph d="M184 367q-78 0 -109 53q-11 21 -13 45h18q5 -60 64 -77q19 -5 40 -5q69 0 92 50q7 17 7 37q0 47 -42 66q-18 7 -38 7h-24l3 16h29q56 0 74 43q6 14 6 31q0 51 -50 66q-15 4 -30 4q-73 0 -98 -69q-2 -5 -3 -10h-17q15 66 75 87q21 7 43 7q61 0 87 -42q11 -19 11 -43 q-2 -65 -68 -83q48 -14 58 -61q2 -10 2 -19q0 -66 -61 -92q-26 -11 -56 -11z" glyph-name="threesuperior" horiz-adv-x="305" unicode="³"/>
<glyph d="M242 596l98 147h21l-101 -147h-18z" glyph-name="acute" horiz-adv-x="400" unicode="´"/>
<glyph d="M208 -100l73 461h-5q-119 0 -167 75q-24 38 -24 87q0 134 122 176q47 16 106 16h189l-129 -815h-18l126 799h-129l-126 -799h-18z" glyph-name="paragraph" horiz-adv-x="526" unicode="¶"/>
<glyph d="M91 303q-14 3 -17 17q3 14 17 17q14 -3 17 -17q-3 -14 -17 -17z" glyph-name="periodcentered" horiz-adv-x="166" unicode="·"/>
<glyph d="M144 -210q-65 0 -82 50q-3 11 -4 22h19q3 -49 55 -55q6 -1 12 -1q53 0 66 39q4 11 4 23q-6 49 -56 52q-25 0 -46 -12l-8 8l56 84h18l-48 -71q49 18 81 -11q20 -20 20 -50q0 -53 -49 -71q-18 -7 -38 -7z" glyph-name="cedilla" horiz-adv-x="400" unicode="¸"/>
<glyph d="M129 370l51 319l-106 -68l3 20l115 74h10l-55 -345h-18z" glyph-name="onesuperior" horiz-adv-x="205" unicode="¹"/>
<glyph d="M250 316q-92 0 -141 73q-30 46 -30 105q0 109 70 175q56 51 136 51q96 0 142 -79q26 -44 26 -99q0 -118 -75 -182q-54 -44 -128 -44zM250 332q101 0 152 85q32 54 32 125q0 88 -60 133q-38 29 -90 29q-102 0 -154 -86q-32 -55 -32 -124q0 -85 60 -132q39 -30 92 -30z" glyph-name="ordmasculine" horiz-adv-x="454" unicode="º"/>
<glyph d="M225 439l112 -179l-168 -177h-22l169 179l-110 177h19zM91 439l112 -179l-168 -177h-22l169 179l-110 177h19z" glyph-name="guillemotright" horiz-adv-x="387" unicode="»"/>
<glyph d="M132 370l51 319l-106 -68l3 20l115 74h10l-55 -345h-18zM33 0l588 715h21l-588 -715h-21zM518 0l13 80h-187l1 6l217 259h29l-40 -249h49l-3 -16h-48l-13 -80h-18zM374 96h159l38 235z" glyph-name="onequarter" horiz-adv-x="659" unicode="¼"/>
<glyph d="M132 370l51 319l-106 -68l3 20l115 74h10l-55 -345h-18zM2 0l588 715h21l-588 -715h-21zM350 0l1 7l151 122q61 49 78 79q14 25 14 52q0 48 -42 66q-16 7 -35 7q-76 0 -101 -76q-3 -8 -5 -16h-17q14 77 80 100q21 7 43 7q66 0 88 -51q7 -18 7 -37q0 -56 -58 -109 q-13 -11 -41 -34l-125 -101h195l-3 -16h-230z" glyph-name="onehalf" horiz-adv-x="659" unicode="½"/>
<glyph d="M187 367q-78 0 -109 53q-11 21 -13 45h18q5 -60 64 -77q19 -5 40 -5q69 0 92 50q7 17 7 37q0 47 -42 66q-18 7 -38 7h-24l3 16h29q56 0 74 43q6 14 6 31q0 51 -50 66q-15 4 -30 4q-73 0 -98 -69q-2 -5 -3 -10h-17q15 66 75 87q21 7 43 7q61 0 87 -42q11 -19 11 -43 q-2 -65 -68 -83q48 -14 58 -61q2 -10 2 -19q0 -66 -61 -92q-26 -11 -56 -11zM88 0l588 715h21l-588 -715h-21zM546 0l13 80h-187l1 6l217 259h29l-40 -249h49l-3 -16h-48l-13 -80h-18zM402 96h159l38 235z" glyph-name="threequarters" horiz-adv-x="687" unicode="¾"/>
<glyph d="M292 446l-11 -72q-10 -71 -64 -122q-20 -19 -60 -51q-68 -54 -82 -68q-47 -51 -47 -117q0 -85 85 -113q30 -9 64 -9q129 0 178 115q11 26 17 57h18q-19 -122 -116 -168q-44 -21 -97 -21q-97 0 -142 57q-26 35 -26 82q0 79 62 137q3 2 74 59q1 2 2 2q67 54 87 84 q22 33 29 78l11 70h18zM306 603q14 -3 17 -17q-3 -14 -17 -17q-14 3 -17 17q3 14 17 17z" glyph-name="questiondown" horiz-adv-x="462" unicode="¿"/>
<glyph d="M540 0l-54 235h-355l-124 -235h-19l380 715h26l164 -715h-18zM379 701l-239 -449h342zM383 771l-64 117h21l61 -117h-18z" glyph-name="Agrave" horiz-adv-x="630" unicode="À"/>
<glyph d="M540 0l-54 235h-355l-124 -235h-19l380 715h26l164 -715h-18zM379 701l-239 -449h342zM374 771l81 117h22l-84 -117h-19z" glyph-name="Aacute" horiz-adv-x="630" unicode="Á"/>
<glyph d="M540 0l-54 235h-355l-124 -235h-19l380 715h26l164 -715h-18zM379 701l-239 -449h342zM260 771l127 117h20l97 -117h-19l-89 102l-115 -102h-21z" glyph-name="Acircumflex" horiz-adv-x="630" unicode="Â"/>
<glyph d="M540 0l-54 235h-355l-124 -235h-19l380 715h26l164 -715h-18zM379 701l-239 -449h342zM455 774q-27 0 -75 35q-41 29 -61 29q-38 0 -54 -46q-3 -9 -5 -17h-17q23 73 77 79q25 0 73 -34q43 -30 63 -30q36 0 53 44q3 10 5 19h17q-14 -69 -64 -78q-7 -1 -12 -1z" glyph-name="Atilde" horiz-adv-x="630" unicode="Ã"/>
<glyph d="M540 0l-54 235h-355l-124 -235h-19l380 715h26l164 -715h-18zM379 701l-239 -449h342zM310 787q-14 3 -17 17q3 14 17 17q14 -3 17 -17q-3 -14 -17 -17zM464 787q-14 3 -17 17q3 14 17 17q14 -3 17 -17q-3 -14 -17 -17z" glyph-name="Adieresis" horiz-adv-x="630" unicode="Ä"/>
<glyph d="M540 0l-54 235h-355l-124 -235h-19l380 715h26l164 -715h-18zM379 701l-239 -449h342zM387 749q-49 0 -74 41q-12 20 -12 42q0 49 42 75q22 13 47 13q53 0 76 -44q10 -18 10 -39q0 -52 -44 -77q-21 -11 -45 -11zM387 764q48 0 66 41q6 15 6 32q0 46 -39 62q-14 6 -30 6 q-44 0 -64 -39q-8 -16 -8 -34q0 -41 36 -60q16 -8 33 -8z" glyph-name="Aring" horiz-adv-x="630" unicode="Å"/>
<glyph d="M-14 0l468 715h484l-3 -17h-378l-51 -320h314l-3 -17h-313l-55 -344h403l-3 -17h-421l37 235h-303l-154 -235h-22zM465 698l-292 -446h294l71 446h-73z" glyph-name="AE" horiz-adv-x="941" unicode="Æ"/>
<glyph d="M296 -210q-65 0 -82 50q-3 11 -4 22h19q3 -49 55 -55q6 -1 12 -1q53 0 66 39q4 11 4 23q-6 49 -56 52q-25 0 -46 -12l-8 8l54 82q-152 20 -217 147q-37 73 -37 170q0 166 98 281q107 124 277 125q124 0 200 -79q52 -55 64 -132h-17q-22 115 -123 166q-56 28 -124 28 q-168 0 -268 -124q-87 -109 -87 -265q0 -174 114 -254q72 -50 176 -50q153 0 240 111q33 44 52 99h18q-43 -141 -169 -198q-65 -29 -141 -29q-19 0 -39 2l-45 -67q49 18 81 -11q20 -20 20 -50q0 -53 -49 -71q-18 -7 -38 -7z" glyph-name="Ccedilla" horiz-adv-x="722" unicode="Ç"/>
<glyph d="M53 0l113 715h397l-3 -17h-378l-51 -320h314l-3 -17h-313l-55 -344h404l-4 -17h-421zM369 771l-64 117h21l61 -117h-18z" glyph-name="Egrave" horiz-adv-x="566" unicode="È"/>
<glyph d="M53 0l113 715h397l-3 -17h-378l-51 -320h314l-3 -17h-313l-55 -344h404l-4 -17h-421zM347 771l81 117h22l-84 -117h-19z" glyph-name="Eacute" horiz-adv-x="566" unicode="É"/>
<glyph d="M53 0l113 715h397l-3 -17h-378l-51 -320h314l-3 -17h-313l-55 -344h404l-4 -17h-421zM242 771l127 117h20l97 -117h-19l-89 102l-115 -102h-21z" glyph-name="Ecircumflex" horiz-adv-x="566" unicode="Ê"/>
<glyph d="M53 0l113 715h397l-3 -17h-378l-51 -320h314l-3 -17h-313l-55 -344h404l-4 -17h-421zM291 787q-14 3 -17 17q3 14 17 17q14 -3 17 -17q-3 -14 -17 -17zM445 787q-14 3 -17 17q3 14 17 17q14 -3 17 -17q-3 -14 -17 -17z" glyph-name="Edieresis" horiz-adv-x="566" unicode="Ë"/>
<glyph d="M58 0l113 715h19l-113 -715h-19zM184 771l-64 117h21l61 -117h-18z" glyph-name="Igrave" horiz-adv-x="219" unicode="Ì"/>
<glyph d="M58 0l113 715h19l-113 -715h-19zM175 771l81 117h22l-84 -117h-19z" glyph-name="Iacute" horiz-adv-x="219" unicode="Í"/>
<glyph d="M58 0l113 715h19l-113 -715h-19zM67 771l127 117h20l97 -117h-19l-89 102l-115 -102h-21z" glyph-name="Icircumflex" horiz-adv-x="219" unicode="Î"/>
<glyph d="M58 0l113 715h19l-113 -715h-19zM116 787q-14 3 -17 17q3 14 17 17q14 -3 17 -17q-3 -14 -17 -17zM270 787q-14 3 -17 17q3 14 17 17q14 -3 17 -17q-3 -14 -17 -17z" glyph-name="Idieresis" horiz-adv-x="219" unicode="Ï"/>
<glyph d="M34 352l3 17h74l55 346h171q187 0 267 -130q45 -73 45 -174q0 -221 -142 -331q-105 -80 -264 -80h-190l55 352h-74zM74 17h169q206 0 309 135q78 102 78 259q0 161 -108 236q-73 51 -185 51h-155l-52 -329h210l-3 -17h-210z" glyph-name="Eth" horiz-adv-x="677" unicode="Ð"/>
<glyph d="M53 0l113 715h29l353 -693l110 693h19l-113 -715h-25l-357 700l-110 -700h-19zM507 774q-27 0 -75 35q-41 29 -61 29q-38 0 -54 -46q-3 -9 -5 -17h-17q23 73 77 79q25 0 73 -34q43 -30 63 -30q36 0 53 44q3 10 5 19h17q-14 -69 -64 -78q-7 -1 -12 -1z" glyph-name="Ntilde" horiz-adv-x="701" unicode="Ñ"/>
<glyph d="M752 389q0 -151 -93 -263q-99 -121 -254 -131q-13 -1 -25 -1q-163 0 -253 115q-71 91 -71 222q0 150 94 261q101 119 256 128q13 1 24 1q150 0 242 -105q80 -93 80 -227zM733 389q1 139 -87 229q-85 86 -216 86q-156 0 -258 -114q-94 -107 -97 -259q-2 -143 87 -234 q85 -86 218 -86q155 0 257 115q93 107 96 257v6zM440 771l-64 117h21l61 -117h-18z" glyph-name="Ograve" unicode="Ò"/>
<glyph d="M752 389q0 -151 -93 -263q-99 -121 -254 -131q-13 -1 -25 -1q-163 0 -253 115q-71 91 -71 222q0 150 94 261q101 119 256 128q13 1 24 1q150 0 242 -105q80 -93 80 -227zM733 389q1 139 -87 229q-85 86 -216 86q-156 0 -258 -114q-94 -107 -97 -259q-2 -143 87 -234 q85 -86 218 -86q155 0 257 115q93 107 96 257v6zM431 771l81 117h22l-84 -117h-19z" glyph-name="Oacute" unicode="Ó"/>
<glyph d="M752 389q0 -151 -93 -263q-99 -121 -254 -131q-13 -1 -25 -1q-163 0 -253 115q-71 91 -71 222q0 150 94 261q101 119 256 128q13 1 24 1q150 0 242 -105q80 -93 80 -227zM733 389q1 139 -87 229q-85 86 -216 86q-156 0 -258 -114q-94 -107 -97 -259q-2 -143 87 -234 q85 -86 218 -86q155 0 257 115q93 107 96 257v6zM319 771l127 117h20l97 -117h-19l-89 102l-115 -102h-21z" glyph-name="Ocircumflex" unicode="Ô"/>
<glyph d="M752 389q0 -151 -93 -263q-99 -121 -254 -131q-13 -1 -25 -1q-163 0 -253 115q-71 91 -71 222q0 150 94 261q101 119 256 128q13 1 24 1q150 0 242 -105q80 -93 80 -227zM733 389q1 139 -87 229q-85 86 -216 86q-156 0 -258 -114q-94 -107 -97 -259q-2 -143 87 -234 q85 -86 218 -86q155 0 257 115q93 107 96 257v6zM512 774q-27 0 -75 35q-41 29 -61 29q-38 0 -54 -46q-3 -9 -5 -17h-17q23 73 77 79q25 0 73 -34q43 -30 63 -30q36 0 53 44q3 10 5 19h17q-14 -69 -64 -78q-7 -1 -12 -1z" glyph-name="Otilde" unicode="Õ"/>
<glyph d="M752 389q0 -151 -93 -263q-99 -121 -254 -131q-13 -1 -25 -1q-163 0 -253 115q-71 91 -71 222q0 150 94 261q101 119 256 128q13 1 24 1q150 0 242 -105q80 -93 80 -227zM733 389q1 139 -87 229q-85 86 -216 86q-156 0 -258 -114q-94 -107 -97 -259q-2 -143 87 -234 q85 -86 218 -86q155 0 257 115q93 107 96 257v6zM366 787q-14 3 -17 17q3 14 17 17q14 -3 17 -17q-3 -14 -17 -17zM520 787q-14 3 -17 17q3 14 17 17q14 -3 17 -17q-3 -14 -17 -17z" glyph-name="Odieresis" unicode="Ö"/>
<glyph d="M60 156l-11 13l189 168l-146 168l13 12l146 -168l190 168l11 -13l-189 -168l147 -168l-13 -12l-147 168z" glyph-name="multiply" horiz-adv-x="500" unicode="×"/>
<glyph d="M48 -14l-11 11l97 102q-78 91 -78 232q0 150 94 261q101 119 256 128q13 1 24 1q132 -1 220 -83l93 97l11 -11l-93 -97q91 -95 91 -238q0 -151 -93 -263q-99 -121 -254 -131q-13 -1 -25 -1q-147 1 -235 93zM733 389q-1 138 -83 226l-493 -515q87 -89 223 -89 q155 0 257 115q93 107 96 257v6zM75 331q-2 -130 72 -219l492 514q-84 78 -209 78q-156 0 -258 -114q-94 -107 -97 -259z" glyph-name="Oslash" unicode="Ø"/>
<glyph d="M315 -4q-179 0 -227 122q-23 61 -10 144l72 453h19l-72 -453q-29 -186 114 -234q46 -15 105 -15q174 0 227 144q13 35 20 79l76 479h19l-76 -479q-28 -180 -157 -224q-48 -16 -110 -16zM404 771l-64 117h21l61 -117h-18z" glyph-name="Ugrave" horiz-adv-x="666" unicode="Ù"/>
<glyph d="M315 -4q-179 0 -227 122q-23 61 -10 144l72 453h19l-72 -453q-29 -186 114 -234q46 -15 105 -15q174 0 227 144q13 35 20 79l76 479h19l-76 -479q-28 -180 -157 -224q-48 -16 -110 -16zM389 771l81 117h22l-84 -117h-19z" glyph-name="Uacute" horiz-adv-x="666" unicode="Ú"/>
<glyph d="M315 -4q-179 0 -227 122q-23 61 -10 144l72 453h19l-72 -453q-29 -186 114 -234q46 -15 105 -15q174 0 227 144q13 35 20 79l76 479h19l-76 -479q-28 -180 -157 -224q-48 -16 -110 -16zM287 771l127 117h20l97 -117h-19l-89 102l-115 -102h-21z" glyph-name="Ucircumflex" horiz-adv-x="666" unicode="Û"/>
<glyph d="M315 -4q-179 0 -227 122q-23 61 -10 144l72 453h19l-72 -453q-29 -186 114 -234q46 -15 105 -15q174 0 227 144q13 35 20 79l76 479h19l-76 -479q-28 -180 -157 -224q-48 -16 -110 -16zM334 787q-14 3 -17 17q3 14 17 17q14 -3 17 -17q-3 -14 -17 -17zM488 787 q-14 3 -17 17q3 14 17 17q14 -3 17 -17q-3 -14 -17 -17z" glyph-name="Udieresis" horiz-adv-x="666" unicode="Ü"/>
<glyph d="M228 0l51 325l-194 390h19l187 -373l282 373h22l-297 -391l-51 -324h-19zM329 771l81 117h22l-84 -117h-19z" glyph-name="Yacute" horiz-adv-x="554" unicode="Ý"/>
<glyph d="M184 715l-25 -156h143q164 0 207 -101q14 -32 14 -71q-5 -204 -250 -206h-174l-28 -181h-18l113 715h18zM301 542h-145l-54 -344h171q180 0 219 110q12 35 12 79q-2 154 -203 155z" glyph-name="Thorn" horiz-adv-x="552" unicode="Þ"/>
<glyph d="M271 -4q-66 0 -108 22l3 17q48 -23 105 -23q118 0 173 89q32 53 32 128q0 100 -74 163q-56 48 -131 51l3 16q114 4 168 74q31 41 31 96q0 86 -75 118q-29 12 -64 13q-110 1 -160 -93q-19 -36 -26 -81l-92 -586h-18l92 587q18 121 110 168q43 21 94 21q88 0 132 -61 q25 -37 25 -86q0 -96 -85 -147q-38 -24 -85 -31q86 -20 136 -94q37 -57 37 -128q0 -137 -94 -198q-55 -35 -129 -35z" glyph-name="germandbls" horiz-adv-x="540" unicode="ß"/>
<glyph d="M206 -7q-127 0 -162 84q-11 26 -11 56q2 158 218 159h175l7 47q23 174 -148 175q-141 -2 -181 -131h-18q28 108 131 138q33 9 68 9q141 0 165 -107q8 -38 1 -85l-31 -196q-8 -52 -14 -142h-18q1 31 7 90q-39 -64 -119 -87q-34 -10 -70 -10zM206 9q95 0 155 61 q35 37 43 82l19 124h-172q-171 0 -196 -102q-4 -20 -4 -41q0 -88 84 -114q32 -10 71 -10zM290 596l-55 147h19l53 -147h-17z" glyph-name="agrave" horiz-adv-x="515" unicode="à"/>
<glyph d="M206 -7q-127 0 -162 84q-11 26 -11 56q2 158 218 159h175l7 47q23 174 -148 175q-141 -2 -181 -131h-18q28 108 131 138q33 9 68 9q141 0 165 -107q8 -38 1 -85l-31 -196q-8 -52 -14 -142h-18q1 31 7 90q-39 -64 -119 -87q-34 -10 -70 -10zM206 9q95 0 155 61 q35 37 43 82l19 124h-172q-171 0 -196 -102q-4 -20 -4 -41q0 -88 84 -114q32 -10 71 -10zM283 596l98 147h21l-101 -147h-18z" glyph-name="aacute" horiz-adv-x="515" unicode="á"/>
<glyph d="M206 -7q-127 0 -162 84q-11 26 -11 56q2 158 218 159h175l7 47q23 174 -148 175q-141 -2 -181 -131h-18q28 108 131 138q33 9 68 9q141 0 165 -107q8 -38 1 -85l-31 -196q-8 -52 -14 -142h-18q1 31 7 90q-39 -64 -119 -87q-34 -10 -70 -10zM206 9q95 0 155 61 q35 37 43 82l19 124h-172q-171 0 -196 -102q-4 -20 -4 -41q0 -88 84 -114q32 -10 71 -10zM177 596l127 124h19l96 -124h-19l-88 109l-114 -109h-21z" glyph-name="acircumflex" horiz-adv-x="515" unicode="â"/>
<glyph d="M206 -7q-127 0 -162 84q-11 26 -11 56q2 158 218 159h175l7 47q23 174 -148 175q-141 -2 -181 -131h-18q28 108 131 138q33 9 68 9q141 0 165 -107q8 -38 1 -85l-31 -196q-8 -52 -14 -142h-18q1 31 7 90q-39 -64 -119 -87q-34 -10 -70 -10zM206 9q95 0 155 61 q35 37 43 82l19 124h-172q-171 0 -196 -102q-4 -20 -4 -41q0 -88 84 -114q32 -10 71 -10zM371 613q-27 0 -75 35q-41 29 -61 29q-38 0 -54 -46q-3 -9 -5 -17h-17q23 73 77 79q25 0 73 -34q43 -30 63 -30q36 0 53 44q3 10 5 19h17q-14 -69 -64 -78q-7 -1 -12 -1z" glyph-name="atilde" horiz-adv-x="515" unicode="ã"/>
<glyph d="M206 -7q-127 0 -162 84q-11 26 -11 56q2 158 218 159h175l7 47q23 174 -148 175q-141 -2 -181 -131h-18q28 108 131 138q33 9 68 9q141 0 165 -107q8 -38 1 -85l-31 -196q-8 -52 -14 -142h-18q1 31 7 90q-39 -64 -119 -87q-34 -10 -70 -10zM206 9q95 0 155 61 q35 37 43 82l19 124h-172q-171 0 -196 -102q-4 -20 -4 -41q0 -88 84 -114q32 -10 71 -10zM233 639q-14 3 -17 17q3 14 17 17q14 -3 17 -17q-3 -14 -17 -17zM375 639q-14 3 -17 17q3 14 17 17q14 -3 17 -17q-3 -14 -17 -17z" glyph-name="adieresis" horiz-adv-x="515" unicode="ä"/>
<glyph d="M206 -7q-127 0 -162 84q-11 26 -11 56q2 158 218 159h175l7 47q23 174 -148 175q-141 -2 -181 -131h-18q28 108 131 138q33 9 68 9q141 0 165 -107q8 -38 1 -85l-31 -196q-8 -52 -14 -142h-18q1 31 7 90q-39 -64 -119 -87q-34 -10 -70 -10zM206 9q95 0 155 61 q35 37 43 82l19 124h-172q-171 0 -196 -102q-4 -20 -4 -41q0 -88 84 -114q32 -10 71 -10zM311 619q48 0 66 41q6 15 6 32q0 46 -39 62q-14 6 -30 6q-44 0 -64 -39q-8 -16 -8 -34q0 -41 36 -60q16 -8 33 -8zM311 604q-49 0 -74 41q-12 20 -12 42q0 49 42 75q22 13 47 13 q53 0 76 -44q10 -18 10 -39q0 -52 -44 -77q-21 -11 -45 -11z" glyph-name="aring" horiz-adv-x="515" unicode="å"/>
<glyph d="M439 219q0 -181 145 -206q22 -4 46 -4q145 1 198 132h18q-50 -140 -200 -148h-16q-171 0 -202 155q-3 13 -4 26q-19 -121 -126 -164q-43 -17 -92 -17q-128 0 -163 85q-10 25 -10 54q2 153 218 154h175l8 53q23 174 -149 175q-141 -2 -181 -131h-18q28 108 131 138 q33 9 68 9q145 0 165 -113q3 -19 3 -40q54 121 167 147q27 6 56 6q133 0 177 -104q25 -61 13 -143l-2 -13h-422q-3 -26 -3 -51zM206 9q111 0 168 82q28 40 36 94l13 85h-172q-160 0 -191 -85q-9 -24 -9 -53q0 -89 87 -114q31 -9 68 -9zM676 514q-128 0 -193 -114 q-29 -50 -39 -114h405q19 138 -60 196q-44 32 -113 32z" glyph-name="ae" horiz-adv-x="904" unicode="æ"/>
<glyph d="M209 -210q-65 0 -82 50q-3 11 -4 22h19q3 -49 55 -55q6 -1 12 -1q53 0 66 39q4 11 4 23q-6 49 -56 52q-25 0 -46 -12l-8 8l54 81q-113 18 -158 119q-23 52 -23 115q0 134 83 221q76 78 186 78q103 0 158 -71q31 -42 35 -96h-18q-4 82 -74 124q-44 27 -102 27 q-123 0 -194 -99q-56 -79 -56 -184q0 -125 85 -185q52 -37 123 -37q124 0 183 97q18 29 27 64h18q-29 -123 -139 -162q-41 -15 -89 -15q-15 0 -29 2l-44 -66q49 18 81 -11q20 -20 20 -50q0 -53 -49 -71q-18 -7 -38 -7z" glyph-name="ccedilla" horiz-adv-x="539" unicode="ç"/>
<glyph d="M57 219q0 -161 121 -199q34 -11 75 -11q147 1 200 132h18q-47 -131 -184 -146q-17 -2 -34 -2q-156 0 -200 128q-15 44 -15 98q0 136 77 226q73 84 184 85q131 0 177 -101q28 -62 15 -146l-2 -13h-429q-3 -26 -3 -51zM299 514q-127 0 -195 -111q-31 -52 -42 -117h412 q20 139 -61 197q-45 31 -114 31zM298 596l-55 147h19l53 -147h-17z" glyph-name="egrave" horiz-adv-x="529" unicode="è"/>
<glyph d="M57 219q0 -161 121 -199q34 -11 75 -11q147 1 200 132h18q-47 -131 -184 -146q-17 -2 -34 -2q-156 0 -200 128q-15 44 -15 98q0 136 77 226q73 84 184 85q131 0 177 -101q28 -62 15 -146l-2 -13h-429q-3 -26 -3 -51zM299 514q-127 0 -195 -111q-31 -52 -42 -117h412 q20 139 -61 197q-45 31 -114 31zM291 596l98 147h21l-101 -147h-18z" glyph-name="eacute" horiz-adv-x="529" unicode="é"/>
<glyph d="M57 219q0 -161 121 -199q34 -11 75 -11q147 1 200 132h18q-47 -131 -184 -146q-17 -2 -34 -2q-156 0 -200 128q-15 44 -15 98q0 136 77 226q73 84 184 85q131 0 177 -101q28 -62 15 -146l-2 -13h-429q-3 -26 -3 -51zM299 514q-127 0 -195 -111q-31 -52 -42 -117h412 q20 139 -61 197q-45 31 -114 31zM185 596l127 124h19l96 -124h-19l-88 109l-114 -109h-21z" glyph-name="ecircumflex" horiz-adv-x="529" unicode="ê"/>
<glyph d="M57 219q0 -161 121 -199q34 -11 75 -11q147 1 200 132h18q-47 -131 -184 -146q-17 -2 -34 -2q-156 0 -200 128q-15 44 -15 98q0 136 77 226q73 84 184 85q131 0 177 -101q28 -62 15 -146l-2 -13h-429q-3 -26 -3 -51zM299 514q-127 0 -195 -111q-31 -52 -42 -117h412 q20 139 -61 197q-45 31 -114 31zM241 639q-14 3 -17 17q3 14 17 17q14 -3 17 -17q-3 -14 -17 -17zM383 639q-14 3 -17 17q3 14 17 17q14 -3 17 -17q-3 -14 -17 -17z" glyph-name="edieresis" horiz-adv-x="529" unicode="ë"/>
<glyph d="M40 0l82 523h18l-82 -523h-18zM132 596l-55 147h19l53 -147h-17z" glyph-name="igrave" horiz-adv-x="182" unicode="ì"/>
<glyph d="M40 0l82 523h18l-82 -523h-18zM131 596l98 147h21l-101 -147h-18z" glyph-name="iacute" horiz-adv-x="182" unicode="í"/>
<glyph d="M40 0l82 523h18l-82 -523h-18zM19 596l127 124h19l96 -124h-19l-88 109l-114 -109h-21z" glyph-name="icircumflex" horiz-adv-x="182" unicode="î"/>
<glyph d="M96 639q-14 3 -17 17q3 14 17 17q14 -3 17 -17q-3 -14 -17 -17zM208 639q-14 3 -17 17q3 14 17 17q14 -3 17 -17q-3 -14 -17 -17zM40 0l82 523h18l-82 -523h-18z" glyph-name="idieresis" horiz-adv-x="182" unicode="ï"/>
<glyph d="M160 597l-6 13l160 83q-49 40 -114 80h27q62 -38 103 -71l129 67l6 -13l-123 -64q187 -162 188 -395q0 -148 -89 -234q-73 -70 -180 -70q-112 0 -177 87q-47 65 -47 151q0 130 80 216q76 82 190 82q135 -1 196 -121q-42 160 -177 275zM55 231q0 -105 69 -170 q57 -52 137 -52q127 0 198 100q53 77 53 183q0 124 -84 184q-52 37 -121 37q-128 0 -200 -103q-52 -77 -52 -179z" glyph-name="eth" horiz-adv-x="570" unicode="ð"/>
<glyph d="M38 0l61 389q10 64 15 134h18q-2 -57 -13 -123q42 82 125 115q40 15 83 15q117 0 153 -90q22 -54 10 -130l-49 -310h-18l49 310q23 145 -70 189q-32 15 -75 15q-94 0 -159 -69q-50 -52 -62 -128l-50 -317h-18zM389 613q-27 0 -75 35q-41 29 -61 29q-38 0 -54 -46 q-3 -9 -5 -17h-17q23 73 77 79q25 0 73 -34q43 -30 63 -30q36 0 53 44q3 10 5 19h17q-14 -69 -64 -78q-7 -1 -12 -1z" glyph-name="ntilde" horiz-adv-x="559" unicode="ñ"/>
<glyph d="M263 -7q-112 0 -177 86q-49 65 -49 152q0 131 80 217q76 81 191 81q116 0 179 -92q43 -63 43 -145q0 -144 -87 -229q-73 -70 -180 -70zM263 9q128 0 197 102q52 76 52 181q0 108 -69 172q-55 49 -135 49q-132 0 -203 -105q-50 -76 -50 -177q0 -104 69 -169 q58 -53 139 -53zM314 596l-55 147h19l53 -147h-17z" glyph-name="ograve" horiz-adv-x="567" unicode="ò"/>
<glyph d="M263 -7q-112 0 -177 86q-49 65 -49 152q0 131 80 217q76 81 191 81q116 0 179 -92q43 -63 43 -145q0 -144 -87 -229q-73 -70 -180 -70zM263 9q128 0 197 102q52 76 52 181q0 108 -69 172q-55 49 -135 49q-132 0 -203 -105q-50 -76 -50 -177q0 -104 69 -169 q58 -53 139 -53zM309 596l98 147h21l-101 -147h-18z" glyph-name="oacute" horiz-adv-x="567" unicode="ó"/>
<glyph d="M263 -7q-112 0 -177 86q-49 65 -49 152q0 131 80 217q76 81 191 81q116 0 179 -92q43 -63 43 -145q0 -144 -87 -229q-73 -70 -180 -70zM263 9q128 0 197 102q52 76 52 181q0 108 -69 172q-55 49 -135 49q-132 0 -203 -105q-50 -76 -50 -177q0 -104 69 -169 q58 -53 139 -53zM199 596l127 124h19l96 -124h-19l-88 109l-114 -109h-21z" glyph-name="ocircumflex" horiz-adv-x="567" unicode="ô"/>
<glyph d="M263 -7q-112 0 -177 86q-49 65 -49 152q0 131 80 217q76 81 191 81q116 0 179 -92q43 -63 43 -145q0 -144 -87 -229q-73 -70 -180 -70zM263 9q128 0 197 102q52 76 52 181q0 108 -69 172q-55 49 -135 49q-132 0 -203 -105q-50 -76 -50 -177q0 -104 69 -169 q58 -53 139 -53zM392 613q-27 0 -75 35q-41 29 -61 29q-38 0 -54 -46q-3 -9 -5 -17h-17q23 73 77 79q25 0 73 -34q43 -30 63 -30q36 0 53 44q3 10 5 19h17q-14 -69 -64 -78q-7 -1 -12 -1z" glyph-name="otilde" horiz-adv-x="567" unicode="õ"/>
<glyph d="M263 -7q-112 0 -177 86q-49 65 -49 152q0 131 80 217q76 81 191 81q116 0 179 -92q43 -63 43 -145q0 -144 -87 -229q-73 -70 -180 -70zM263 9q128 0 197 102q52 76 52 181q0 108 -69 172q-55 49 -135 49q-132 0 -203 -105q-50 -76 -50 -177q0 -104 69 -169 q58 -53 139 -53zM254 639q-14 3 -17 17q3 14 17 17q14 -3 17 -17q-3 -14 -17 -17zM396 639q-14 3 -17 17q3 14 17 17q14 -3 17 -17q-3 -14 -17 -17z" glyph-name="odieresis" horiz-adv-x="567" unicode="ö"/>
<glyph d="M47 334l3 16h426l-3 -16h-426zM239 161q-14 3 -17 17q3 14 17 17q14 -3 17 -17q-3 -14 -17 -17zM285 489q-14 3 -17 17q3 14 17 17q14 -3 17 -17q-3 -14 -17 -17z" glyph-name="divide" horiz-adv-x="500" unicode="÷"/>
<glyph d="M32 -11l-12 10l71 73q-54 66 -54 159q0 131 80 217q76 81 191 81q97 -1 159 -67l68 71l11 -10l-70 -72q54 -67 54 -159q0 -144 -87 -229q-73 -70 -180 -70q-97 1 -162 68zM263 9q128 0 197 102q52 76 52 181q-1 85 -47 147l-352 -366q58 -64 150 -64zM55 231 q1 -86 48 -146l352 365q-56 63 -147 63q-132 0 -203 -105q-50 -76 -50 -177z" glyph-name="oslash" horiz-adv-x="567" unicode="ø"/>
<glyph d="M513 523l-61 -389q-10 -68 -13 -134h-18q2 55 11 121q-43 -85 -130 -115q-37 -13 -77 -13q-118 0 -153 92q-20 53 -8 128l49 310h18l-49 -310q-24 -149 71 -191q32 -13 72 -13q94 0 159 69q49 53 61 128l50 317h18zM311 596l-55 147h19l53 -147h-17z" glyph-name="ugrave" horiz-adv-x="555" unicode="ù"/>
<glyph d="M513 523l-61 -389q-10 -68 -13 -134h-18q2 55 11 121q-43 -85 -130 -115q-37 -13 -77 -13q-118 0 -153 92q-20 53 -8 128l49 310h18l-49 -310q-24 -149 71 -191q32 -13 72 -13q94 0 159 69q49 53 61 128l50 317h18zM300 596l98 147h21l-101 -147h-18z" glyph-name="uacute" horiz-adv-x="555" unicode="ú"/>
<glyph d="M513 523l-61 -389q-10 -68 -13 -134h-18q2 55 11 121q-43 -85 -130 -115q-37 -13 -77 -13q-118 0 -153 92q-20 53 -8 128l49 310h18l-49 -310q-24 -149 71 -191q32 -13 72 -13q94 0 159 69q49 53 61 128l50 317h18zM193 596l127 124h19l96 -124h-19l-88 109l-114 -109 h-21z" glyph-name="ucircumflex" horiz-adv-x="555" unicode="û"/>
<glyph d="M513 523l-61 -389q-10 -68 -13 -134h-18q2 55 11 121q-43 -85 -130 -115q-37 -13 -77 -13q-118 0 -153 92q-20 53 -8 128l49 310h18l-49 -310q-24 -149 71 -191q32 -13 72 -13q94 0 159 69q49 53 61 128l50 317h18zM255 639q-14 3 -17 17q3 14 17 17q14 -3 17 -17 q-3 -14 -17 -17zM397 639q-14 3 -17 17q3 14 17 17q14 -3 17 -17q-3 -14 -17 -17z" glyph-name="udieresis" horiz-adv-x="555" unicode="ü"/>
<glyph d="M78 -182l122 218l-134 487h18l129 -466l261 466h20l-396 -705h-20zM275 596l98 147h21l-101 -147h-18z" glyph-name="yacute" horiz-adv-x="480" unicode="ý"/>
<glyph d="M9 -182l151 955h18l-62 -395q45 98 135 135q43 17 89 17q99 0 159 -78q50 -66 50 -159q0 -156 -88 -238q-66 -62 -166 -62q-120 0 -180 98q-24 41 -31 86l-57 -359h-18zM295 9q136 0 199 117q37 71 37 167q0 121 -80 183q-49 38 -111 38q-119 0 -190 -104 q-53 -78 -55 -173q-2 -128 82 -191q51 -37 118 -37z" glyph-name="thorn" horiz-adv-x="586" unicode="þ"/>
</font>
</defs>
</svg>
